<svg width="127" height="85" viewBox="0 0 127 85" fill="none" xmlns="http://www.w3.org/2000/svg">
<path d="M31.7319 52.2677L-0.000272412 52.2677L-0.000271025 20.5332L31.7319 52.2677Z" fill="#ED1C24"/>
<path d="M-0.000271025 20.5791L31.7319 20.5791L31.7319 52.3136L-0.000271025 20.5791Z" fill="white"/>
<path d="M126.933 52.2677L95.1986 52.2677L95.1986 20.5332L126.933 52.2677Z" fill="#ED1C24"/>
<path d="M95.1986 20.5332L126.933 20.5332L126.933 52.2677L95.1986 20.5332Z" fill="white"/>
<path d="M126.933 84.0011L95.1986 84.0011L95.1986 52.2666L126.933 84.0011Z" fill="#ED1C24"/>
<path d="M95.1986 52.2666L126.933 52.2666L126.933 84.0011L95.1986 52.2666Z" fill="white"/>
<path d="M119.466 28.6944L119.466 39.6773C119.466 45.4295 114.875 50.0922 109.212 50.0922C103.548 50.0922 98.9571 45.4295 98.9571 39.6773L98.9571 28.5437C98.9571 24.4317 95.79 20.9514 91.7412 20.8297C87.5355 20.7022 84.0774 24.139 84.0774 28.3815L84.0774 57.7628C84.0774 64.7379 81.4495 71.4986 76.5876 76.4278C71.7855 81.2991 65.4114 83.9854 58.6263 83.9999C52.1609 84.0144 45.8922 81.5194 41.1701 77.0364C35.9515 72.0811 33.064 65.3117 33.064 58.096L33.064 51.3266C33.064 48.1274 30.5103 45.5338 27.3604 45.5338L13.0541 45.5338C7.39041 45.5338 2.79952 40.8712 2.79952 35.119C2.79952 29.3667 7.39041 24.7041 13.0541 24.7041L27.018 24.7041C34.0569 24.7041 40.8819 27.4252 45.8694 32.4703C50.8398 37.501 53.5761 44.2008 53.5761 51.3238L53.5761 57.9685C53.5761 60.7186 55.6761 63.063 58.3838 63.1673C61.2285 63.2774 63.5767 60.9591 63.5767 58.0931L63.5767 28.6944C63.5767 21.1687 66.3815 13.8777 71.5716 8.50799C76.8701 3.02235 83.969 -0.000101348 91.5244 -0.000100688C99.0798 -0.000100027 106.179 3.02525 111.477 8.50799C116.662 13.8806 119.466 21.1716 119.466 28.6944Z" fill="#00BDF2"/>
<path d="M63.4663 83.9552L31.7318 83.9552L31.7318 52.2207L63.4663 83.9552Z" fill="#ED1C24"/>
<path d="M31.7318 52.2666L63.4663 52.2666L63.4663 84.0011L31.7318 52.2666Z" fill="white"/>
<path d="M95.1987 52.2677L63.4665 52.2677L63.4665 20.5332L95.1987 52.2677Z" fill="#ED1C24"/>
<path d="M63.4665 20.5332L95.1987 20.5332L95.1987 52.2677L63.4665 20.5332Z" fill="white"/>
</svg>
