<svg width="30" height="21" viewBox="0 0 30 21" fill="none" xmlns="http://www.w3.org/2000/svg">
<path d="M0 13.33V10.6828C0 9.29641 1.18051 8.1726 2.63689 8.1726C4.09328 8.1726 5.27379 9.29641 5.27379 10.6828V13.3663C5.27379 14.3574 6.08819 15.1962 7.1293 15.2256C8.21077 15.2563 9.1 14.4279 9.1 13.4054V6.3238C9.1 4.64262 9.77573 3.01314 11.0259 1.82507C12.2608 0.650972 13.8998 0.00350738 15.6445 1.51254e-05C17.3071 -0.00347713 18.919 0.59789 20.1333 1.67839C21.4752 2.87275 22.2177 4.50433 22.2177 6.24347V7.87506C22.2177 8.64615 22.8744 9.27126 23.6844 9.27126H27.3631C28.8195 9.27126 30 10.3951 30 11.7815C30 13.1679 28.8195 14.2917 27.3631 14.2917H23.7724C21.9624 14.2917 20.2074 13.6359 18.9249 12.4199C17.6468 11.2074 16.9432 9.59255 16.9432 7.87576V6.27421C16.9432 5.61138 16.4032 5.04633 15.7069 5.02118C14.9754 4.99464 14.3716 5.5534 14.3716 6.24417V13.33C14.3716 15.1438 13.6504 16.9011 12.3158 18.1954C10.9533 19.5175 9.12788 20.246 7.18506 20.246C5.24224 20.246 3.41681 19.5168 2.05434 18.1954C0.721221 16.9004 0 15.1431 0 13.33Z" fill="#00BDF2"/>
</svg>
