<svg width="61" height="61" viewBox="0 0 61 61" fill="none" xmlns="http://www.w3.org/2000/svg">
<path d="M18.0046 45.4121H5.06706C4.06706 45.4121 3.33789 44.9746 2.87956 44.0996C2.42122 43.2246 2.46289 42.3704 3.00456 41.5371L10.1296 30.4121C9.12956 30.4121 8.42122 29.9646 8.00456 29.0696C7.58789 28.1746 7.67122 27.3096 8.25456 26.4746L20.9421 8.34961C21.4421 7.64128 22.1296 7.28711 23.0046 7.28711C23.8796 7.28711 24.5671 7.64128 25.0671 8.34961L30.5046 16.1621L35.9421 8.34961C36.4421 7.64128 37.1296 7.28711 38.0046 7.28711C38.8796 7.28711 39.5671 7.64128 40.0671 8.34961L52.7546 26.4746C53.3379 27.3079 53.4212 28.1729 53.0046 29.0696C52.5879 29.9663 51.8796 30.4138 50.8796 30.4121L58.0046 41.5371C58.5462 42.3704 58.5879 43.2246 58.1296 44.0996C57.6712 44.9746 56.9421 45.4121 55.9421 45.4121H43.0046V50.4121C43.0046 51.7871 42.5146 52.9646 41.5346 53.9446C40.5546 54.9246 39.3779 55.4138 38.0046 55.4121C36.6296 55.4121 35.4521 54.9221 34.4721 53.9421C33.4921 52.9621 33.0029 51.7854 33.0046 50.4121V45.4121H28.0046V50.4121C28.0046 51.7871 27.5146 52.9646 26.5346 53.9446C25.5546 54.9246 24.3779 55.4138 23.0046 55.4121C21.6296 55.4121 20.4521 54.9221 19.4721 53.9421C18.4921 52.9621 18.0029 51.7854 18.0046 50.4121V45.4121ZM42.3171 40.4121H51.3796L41.6921 25.4121H45.8796L38.0046 14.1621L33.5671 20.4746L37.7546 26.4746C38.3379 27.3079 38.4212 28.1729 38.0046 29.0696C37.5879 29.9663 36.8796 30.4138 35.8796 30.4121L42.3171 40.4121ZM9.62956 40.4121H36.3796L26.6921 25.4121H30.8796L23.0046 14.1621L15.1296 25.4121H19.3171L9.62956 40.4121ZM9.62956 40.4121H19.3171H15.1296H30.8796H26.6921H36.3796H9.62956ZM42.3171 40.4121H35.8796H38.0046H33.5671H45.8796H41.6921H51.3796H42.3171Z" fill="black"/>
</svg>
