<svg width="1104" height="432" viewBox="0 0 1104 432" fill="none" xmlns="http://www.w3.org/2000/svg">
<path fill-rule="evenodd" clip-rule="evenodd" d="M959.433 170.648C959.433 155.743 947.35 143.661 932.446 143.661C917.541 143.661 905.459 155.743 905.459 170.648L905.459 258.628C905.459 352.881 829.052 429.288 734.799 429.288C640.546 429.288 564.139 352.881 564.139 258.628L564.139 165.152C564.139 153.283 554.516 143.661 542.647 143.661C530.777 143.661 521.155 153.283 521.155 165.152L521.155 261.087C521.155 353.982 445.849 429.288 352.954 429.288C260.059 429.288 184.753 353.982 184.753 261.087L184.753 164.207C184.753 152.86 175.554 143.661 164.207 143.661C152.86 143.661 143.661 152.86 143.661 164.207L143.661 226.788C143.661 265.906 111.949 297.618 72.8308 297.618C33.7122 297.618 2.00037 265.906 2.00037 226.788L2.00037 164.207C2.00037 74.6224 74.6227 2.00001 164.207 2.00001C253.791 2.00001 326.414 74.6225 326.414 164.207L326.414 261.087C326.414 275.745 338.296 287.628 352.954 287.628C367.612 287.628 379.494 275.745 379.494 261.087L379.494 165.152C379.494 75.0458 452.54 2.00001 542.647 2.00001C632.754 2.00001 705.799 75.0458 705.799 165.152L705.799 258.628C705.799 274.644 718.783 287.628 734.799 287.628C750.815 287.628 763.798 274.644 763.798 258.628L763.798 170.648C763.798 77.5063 839.304 2.00004 932.446 2.00004C1025.59 2.00005 1101.09 77.5062 1101.09 170.648L1101.09 226.788C1101.09 265.906 1069.38 297.618 1030.26 297.618C991.145 297.618 959.433 265.906 959.433 226.788L959.433 170.648Z" stroke="#00BCF1" stroke-width="4" stroke-linecap="round"/>
</svg>
