<svg width="61" height="61" viewBox="0 0 61 61" fill="none" xmlns="http://www.w3.org/2000/svg">
<path d="M5.49414 47.5V32.5C5.49414 31.375 5.72331 30.3542 6.18164 29.4375C6.63997 28.5208 7.24414 27.7083 7.99414 27V20C7.99414 17.9167 8.72331 16.1458 10.1816 14.6875C11.64 13.2292 13.4108 12.5 15.4941 12.5H25.4941C26.4525 12.5 27.3483 12.6775 28.1816 13.0325C29.015 13.3875 29.7858 13.8767 30.4941 14.5C31.2025 13.875 31.9733 13.3858 32.8066 13.0325C33.64 12.6792 34.5358 12.5017 35.4941 12.5H45.4941C47.5775 12.5 49.3483 13.2292 50.8066 14.6875C52.265 16.1458 52.9941 17.9167 52.9941 20V27C53.7441 27.7083 54.3483 28.5208 54.8066 29.4375C55.265 30.3542 55.4941 31.375 55.4941 32.5V47.5H50.4941V42.5H10.4941V47.5H5.49414ZM32.9941 25H47.9941V20C47.9941 19.2917 47.7541 18.6975 47.2741 18.2175C46.7941 17.7375 46.2008 17.4983 45.4941 17.5H35.4941C34.7858 17.5 34.1916 17.74 33.7116 18.22C33.2316 18.7 32.9925 19.2933 32.9941 20V25ZM12.9941 25H27.9941V20C27.9941 19.2917 27.7541 18.6975 27.2741 18.2175C26.7941 17.7375 26.2008 17.4983 25.4941 17.5H15.4941C14.7858 17.5 14.1916 17.74 13.7116 18.22C13.2316 18.7 12.9925 19.2933 12.9941 20V25ZM10.4941 37.5H50.4941V32.5C50.4941 31.7917 50.2541 31.1975 49.7741 30.7175C49.2941 30.2375 48.7008 29.9983 47.9941 30H12.9941C12.2858 30 11.6916 30.24 11.2116 30.72C10.7316 31.2 10.4925 31.7933 10.4941 32.5V37.5Z" fill="black"/>
</svg>
