<svg width="1617" height="666" viewBox="0 0 1617 666" fill="none" xmlns="http://www.w3.org/2000/svg">
<path fill-rule="evenodd" clip-rule="evenodd" d="M1406.63 416.247C1406.63 438.113 1388.91 455.839 1367.04 455.839C1345.17 455.839 1327.45 438.113 1327.45 416.247L1327.45 252.372C1327.45 114.095 1215.35 1.99957 1077.07 1.99957C938.798 1.99956 826.703 114.095 826.703 252.372L826.703 424.309C826.703 441.723 812.586 455.839 795.173 455.839C777.759 455.839 763.643 441.723 763.643 424.309L763.643 248.764C763.643 112.48 653.163 1.99956 516.878 1.99956C380.593 1.99956 270.113 112.48 270.113 248.764L270.113 425.697C270.113 442.344 256.618 455.839 239.971 455.839C223.324 455.839 209.828 442.344 209.828 425.697L209.828 299.084C209.828 241.694 163.305 195.17 105.914 195.17C48.5243 195.17 2.00049 241.694 2.00049 299.084L2.00049 425.697C2.00049 557.124 108.543 663.667 239.971 663.667C371.398 663.667 477.941 557.124 477.941 425.697L477.941 248.764C477.941 227.26 495.374 209.827 516.878 209.827C538.382 209.827 555.815 227.26 555.815 248.764L555.815 424.309C555.815 556.503 662.979 663.667 795.173 663.667C927.366 663.667 1034.53 556.503 1034.53 424.309L1034.53 252.372C1034.53 228.875 1053.58 209.827 1077.07 209.827C1100.57 209.827 1119.62 228.875 1119.62 252.372L1119.62 416.247C1119.62 552.893 1230.39 663.667 1367.04 663.667C1503.69 663.667 1614.46 552.893 1614.46 416.247L1614.46 299.084C1614.46 241.694 1567.94 195.17 1510.55 195.17C1453.15 195.17 1406.63 241.694 1406.63 299.084L1406.63 416.247Z" stroke="#00BCF1" stroke-width="4" stroke-linecap="round"/>
</svg>
