<svg width="61" height="61" viewBox="0 0 61 61" fill="none" xmlns="http://www.w3.org/2000/svg">
<path d="M55.4371 31.9575C53.6294 29.8287 51.0661 28.4844 48.2871 28.2075C48.2871 23.3325 46.5871 19.2075 43.1871 15.8075C39.7871 12.4075 35.6621 10.7075 30.7871 10.7075C26.8371 10.7075 23.2871 11.8825 20.1621 14.2825C17.0371 16.6825 14.9621 19.7575 13.9121 23.5825C10.7871 24.2825 8.18711 25.9075 6.21211 28.4575C4.23711 31.0075 3.28711 33.9075 3.28711 37.1575C3.28711 40.9325 4.63711 44.1575 7.31211 46.7825C10.0121 49.4575 13.2871 50.7075 17.0371 50.7075H47.0371C50.1621 50.7075 52.8121 49.6075 55.0121 47.4325C57.1871 45.2325 58.2871 42.5825 58.2871 39.4575C58.2871 36.5825 57.3371 34.0825 55.4371 31.9575ZM51.4621 43.8825C50.2621 45.1075 48.7871 45.7075 47.0371 45.7075H17.0371C14.6121 45.7075 12.5621 44.8575 10.8621 43.2075C9.13711 41.4325 8.28711 39.3825 8.28711 36.9575C8.28711 34.5325 9.13711 32.4825 10.8621 30.7825C12.5621 29.0575 14.6121 28.2075 17.0371 28.2075H18.2871C18.2871 24.7575 19.5371 21.8075 21.9371 19.3575C24.3871 16.9575 27.3371 15.7075 30.7871 15.7075C34.2371 15.7075 37.1871 16.9575 39.6371 19.3575C42.0371 21.8075 43.2871 24.7575 43.2871 28.2075V33.2075H47.0371C48.7871 33.2075 50.2621 33.8075 51.4621 35.0325C52.6621 36.2575 53.2871 37.7075 53.2871 39.4575C53.2871 41.2075 52.6871 42.6825 51.4621 43.8825ZM28.2871 38.2075H33.2871V43.2075H28.2871V38.2075ZM36.8621 22.4075C38.2121 23.5325 38.8871 25.0825 38.8871 26.9575C38.8871 28.2075 38.5121 29.2325 37.7871 30.2575C37.0371 31.2325 36.1121 31.9575 34.9621 32.5825C34.3121 32.9825 33.8871 33.3825 33.6621 33.8575C33.4 34.4383 33.2718 35.0705 33.2871 35.7075H28.2871C28.2871 34.3325 28.5621 33.4075 29.0371 32.7575C29.5371 32.1075 30.4121 31.3325 31.7121 30.4825C32.3621 30.0825 32.8871 29.6075 33.2871 29.0075C33.6621 28.4325 33.8621 27.7325 33.8621 26.9575C33.8621 26.1575 33.6371 25.5575 33.1871 25.1075C32.7371 24.6075 32.0371 24.3825 31.2871 24.3825C30.6121 24.3825 30.0621 24.5825 29.5371 24.9575C29.1621 25.3325 28.9121 25.9075 28.9121 26.6825H23.9871C23.8621 24.8075 24.5371 23.2075 25.9371 22.1825C27.2871 21.2075 29.0621 20.7075 31.2871 20.7075C33.6371 20.7075 35.5121 21.2825 36.8621 22.4075Z" fill="black"/>
</svg>
