<svg width="61" height="61" viewBox="0 0 61 61" fill="none" xmlns="http://www.w3.org/2000/svg">
<path d="M25.7559 31.3325C25.2586 31.3325 24.7817 31.5301 24.43 31.8817C24.0784 32.2333 23.8809 32.7102 23.8809 33.2075C23.8809 33.7048 24.0784 34.1817 24.43 34.5333C24.7817 34.885 25.2586 35.0825 25.7559 35.0825H35.7559C36.2531 35.0825 36.7301 34.885 37.0817 34.5333C37.4333 34.1817 37.6309 33.7048 37.6309 33.2075C37.6309 32.7102 37.4333 32.2333 37.0817 31.8817C36.7301 31.5301 36.2531 31.3325 35.7559 31.3325H25.7559Z" fill="black"/>
<path fill-rule="evenodd" clip-rule="evenodd" d="M19.0559 11.395C19.4763 9.26406 20.6233 7.34511 22.3013 5.96585C23.9792 4.58659 26.0838 3.83256 28.2559 3.83252H33.2559C35.428 3.83208 37.5329 4.58594 39.2109 5.96528C40.8889 7.34462 42.0359 9.26384 42.4559 11.395C46.0444 12.3168 49.2298 14.394 51.5205 17.3059C53.8112 20.2179 55.0799 23.8029 55.1309 27.5075V35.665C55.1313 35.6925 55.1313 35.72 55.1309 35.7475V41.645C55.1306 44.6419 54.1084 47.549 52.233 49.8866C50.3577 52.2242 47.7413 53.8524 44.8159 54.5025C35.5555 56.5602 25.9563 56.5602 16.6959 54.5025C13.7704 53.8524 11.154 52.2242 9.27868 49.8866C7.40335 47.549 6.38116 44.6419 6.38086 41.645V27.5075C6.43177 23.8029 7.70049 20.2179 9.99122 17.3059C12.2819 14.394 15.4674 12.3168 19.0559 11.395ZM23.2934 10.5575C23.7735 9.65862 24.4887 8.90703 25.3628 8.38305C26.2368 7.85907 27.2368 7.58237 28.2559 7.58252H33.2559C35.4059 7.58252 37.2734 8.78752 38.2209 10.5575C33.2738 9.801 28.2404 9.801 23.2934 10.5575ZM51.3809 27.985V34.475C44.8469 37.2035 37.8366 38.6084 30.7559 38.6084C23.6751 38.6084 16.6648 37.2035 10.1309 34.475V27.5575C10.1717 24.5599 11.2374 21.6666 13.1509 19.3588C15.0643 17.051 17.7102 15.4678 20.6484 14.8725C20.8584 14.8225 20.9584 14.8025 21.0584 14.78C27.4494 13.3897 34.0648 13.3897 40.4559 14.78L40.8634 14.8725L41.2809 14.965C44.1977 15.6553 46.7905 17.3233 48.6279 19.6915C50.4654 22.0597 51.4369 24.9856 51.3809 27.9825V27.985ZM10.1309 41.645V38.515C20.4836 42.5118 31.7744 43.4151 42.6309 41.115V43.2075C42.6309 43.7048 42.8284 44.1817 43.18 44.5333C43.5317 44.885 44.0086 45.0825 44.5059 45.0825C45.0031 45.0825 45.4801 44.885 45.8317 44.5333C46.1833 44.1817 46.3809 43.7048 46.3809 43.2075V40.185C48.0722 39.7053 49.7407 39.148 51.3809 38.515V41.645C51.3813 43.7891 50.6506 45.8692 49.3093 47.5418C47.968 49.2145 46.0963 50.3797 44.0034 50.845C35.2784 52.7825 26.2334 52.7825 17.5084 50.845C15.4159 50.3792 13.5448 49.2138 12.204 47.5412C10.8632 45.8685 10.1303 43.7887 10.1309 41.645Z" fill="black"/>
</svg>
