<svg width="61" height="61" viewBox="0 0 61 61" fill="none" xmlns="http://www.w3.org/2000/svg">
<path d="M52.51 15.7075V13.2075C52.51 11.8814 51.9832 10.6097 51.0456 9.67199C50.1079 8.7343 48.8361 8.20752 47.51 8.20752H42.51C41.184 8.20752 39.9122 8.7343 38.9745 9.67199C38.0368 10.6097 37.51 11.8814 37.51 13.2075V15.7075H24.0195V13.2075C24.0195 11.8814 23.4927 10.6097 22.5551 9.67199C21.6174 8.7343 20.3456 8.20752 19.0195 8.20752H14.0195C12.6934 8.20752 11.4217 8.7343 10.484 9.67199C9.54632 10.6097 9.01953 11.8814 9.01953 13.2075V15.7075H4.01953V50.7075H57.51V15.7075H52.51Z" stroke="black" stroke-width="4"/>
</svg>
