<svg width="61" height="61" viewBox="0 0 61 61" fill="none" xmlns="http://www.w3.org/2000/svg">
<g clip-path="url(#clip0_1064_1523)">
<path d="M39.2121 19.4575C40.5101 19.4575 41.7789 19.0726 42.8581 18.3515C43.9373 17.6304 44.7784 16.6055 45.2751 15.4064C45.7718 14.2072 45.9018 12.8877 45.6485 11.6147C45.3953 10.3417 44.7703 9.17242 43.8525 8.25463C42.9347 7.33685 41.7654 6.71183 40.4924 6.45862C39.2194 6.2054 37.8999 6.33536 36.7008 6.83206C35.5016 7.32876 34.4767 8.1699 33.7556 9.24909C33.0345 10.3283 32.6496 11.5971 32.6496 12.895C32.6496 14.6355 33.341 16.3047 34.5717 17.5354C35.8025 18.7661 37.4716 19.4575 39.2121 19.4575ZM39.2121 10.0825C39.7684 10.0825 40.3122 10.2475 40.7747 10.5565C41.2372 10.8656 41.5977 11.3048 41.8105 11.8187C42.0234 12.3326 42.0791 12.8981 41.9706 13.4437C41.8621 13.9893 41.5942 14.4904 41.2009 14.8838C40.8075 15.2771 40.3064 15.545 39.7608 15.6535C39.2153 15.762 38.6498 15.7063 38.1358 15.4934C37.6219 15.2806 37.1827 14.9201 36.8736 14.4576C36.5646 13.9951 36.3996 13.4513 36.3996 12.895C36.3996 12.1491 36.6959 11.4337 37.2234 10.9063C37.7508 10.3788 38.4662 10.0825 39.2121 10.0825ZM60.5121 46.6263L47.7246 25.045C47.3948 24.4828 46.9231 24.0172 46.3567 23.6947C45.7903 23.3722 45.1491 23.2042 44.4973 23.2075C43.8458 23.2041 43.2049 23.3721 42.6388 23.6946C42.0728 24.0171 41.6015 24.4828 41.2723 25.045L35.141 35.395L24.6317 17.5591C24.3005 16.9963 23.8281 16.5297 23.2612 16.2055C22.6944 15.8813 22.0527 15.7108 21.3996 15.7108C20.7466 15.7108 20.1049 15.8813 19.538 16.2055C18.9712 16.5297 18.4988 16.9963 18.1676 17.5591L1.03479 46.631C0.867092 46.9157 0.777617 47.2397 0.775432 47.5701C0.773247 47.9006 0.858429 48.2257 1.02235 48.5126C1.18627 48.7996 1.42311 49.0381 1.70888 49.204C1.99465 49.3699 2.31919 49.4574 2.64964 49.4575H58.8996C59.2306 49.4575 59.5556 49.3698 59.8417 49.2035C60.1278 49.0371 60.3648 48.798 60.5286 48.5105C60.6924 48.2229 60.7771 47.8971 60.7742 47.5661C60.7713 47.2352 60.6809 46.9109 60.5121 46.6263ZM21.3996 19.4575L26.9239 28.8325H15.8754L21.3996 19.4575ZM5.93089 45.7075L13.6653 32.5825H29.134L33.5262 40.0356L36.8684 45.7075H5.93089ZM41.2207 45.7075L37.316 39.0794L44.4973 26.9575L55.6184 45.7075H41.2207Z" fill="black"/>
</g>
<defs>
<clipPath id="clip0_1064_1523">
<rect width="60" height="60" fill="white" transform="translate(0.775391 0.70752)"/>
</clipPath>
</defs>
</svg>
