<svg width="61" height="60" viewBox="0 0 61 60" fill="none" xmlns="http://www.w3.org/2000/svg">
<path d="M5.49414 45V40C7.07747 40 8.25497 39.5833 9.02664 38.75C9.79831 37.9167 11.4125 37.5 13.8691 37.5C16.3275 37.5 17.9425 37.9167 18.7141 38.75C19.4858 39.5833 20.6208 40 22.1191 40C23.7025 40 24.88 39.5833 25.6516 38.75C26.4233 37.9167 28.0375 37.5 30.4941 37.5C32.8691 37.5 34.4841 37.9167 35.3391 38.75C36.1941 39.5833 37.3708 40 38.8691 40C40.4525 40 41.6091 39.5833 42.3391 38.75C43.0691 37.9167 44.6625 37.5 47.1191 37.5C49.5775 37.5 51.1925 37.9167 51.9641 38.75C52.7358 39.5833 53.9125 40 55.4941 40V45C53.1191 45 51.505 44.5833 50.6516 43.75C49.7983 42.9167 48.6208 42.5 47.1191 42.5C45.6191 42.5 44.4841 42.9167 43.7141 43.75C42.9441 44.5833 41.3291 45 38.8691 45C36.4941 45 34.88 44.5833 34.0266 43.75C33.1733 42.9167 31.9958 42.5 30.4941 42.5C28.9108 42.5 27.7333 42.9167 26.9616 43.75C26.19 44.5833 24.5758 45 22.1191 45C19.6608 45 18.0666 44.5833 17.3366 43.75C16.6066 42.9167 15.4508 42.5 13.8691 42.5C12.2858 42.5 11.1091 42.9167 10.3391 43.75C9.56914 44.5833 7.95414 45 5.49414 45ZM5.49414 35V30C7.07747 30 8.25497 29.5833 9.02664 28.75C9.79831 27.9167 11.4125 27.5 13.8691 27.5C16.2441 27.5 17.8383 27.9167 18.6516 28.75C19.465 29.5833 20.6208 30 22.1191 30C23.7025 30 24.8791 29.5833 25.6491 28.75C26.4191 27.9167 28.0341 27.5 30.4941 27.5C32.8691 27.5 34.4733 27.9167 35.3066 28.75C36.14 29.5833 37.2858 30 38.7441 30C40.3275 30 41.5041 29.5833 42.2741 28.75C43.0441 27.9167 44.6591 27.5 47.1191 27.5C49.4941 27.5 51.1091 27.9167 51.9641 28.75C52.8191 29.5833 53.9958 30 55.4941 30V35C53.0358 35 51.4 34.5833 50.5866 33.75C49.7733 32.9167 48.6175 32.5 47.1191 32.5C45.6191 32.5 44.4841 32.9167 43.7141 33.75C42.9441 34.5833 41.3291 35 38.8691 35C36.4941 35 34.88 34.5833 34.0266 33.75C33.1733 32.9167 31.9958 32.5 30.4941 32.5C28.9108 32.5 27.7541 32.9167 27.0241 33.75C26.2941 34.5833 24.7008 35 22.2441 35C19.7858 35 18.1508 34.5833 17.3391 33.75C16.5275 32.9167 15.3708 32.5 13.8691 32.5C12.3691 32.5 11.1925 32.9167 10.3391 33.75C9.48581 34.5833 7.87081 35 5.49414 35ZM5.49414 25V20C7.07747 20 8.25497 19.5833 9.02664 18.75C9.79831 17.9167 11.4125 17.5 13.8691 17.5C16.2441 17.5 17.8383 17.9167 18.6516 18.75C19.465 19.5833 20.6208 20 22.1191 20C23.7025 20 24.8791 19.5833 25.6491 18.75C26.4191 17.9167 28.0341 17.5 30.4941 17.5C32.8691 17.5 34.4733 17.9167 35.3066 18.75C36.14 19.5833 37.2858 20 38.7441 20C40.3275 20 41.5041 19.5833 42.2741 18.75C43.0441 17.9167 44.6591 17.5 47.1191 17.5C49.4941 17.5 51.1091 17.9167 51.9641 18.75C52.8191 19.5833 53.9958 20 55.4941 20V25C53.0358 25 51.4 24.5833 50.5866 23.75C49.7733 22.9167 48.6175 22.5 47.1191 22.5C45.6191 22.5 44.4841 22.9167 43.7141 23.75C42.9441 24.5833 41.3291 25 38.8691 25C36.4941 25 34.88 24.5833 34.0266 23.75C33.1733 22.9167 31.9958 22.5 30.4941 22.5C28.9108 22.5 27.7541 22.9167 27.0241 23.75C26.2941 24.5833 24.7008 25 22.2441 25C19.7858 25 18.1508 24.5833 17.3391 23.75C16.5275 22.9167 15.3708 22.5 13.8691 22.5C12.3691 22.5 11.1925 22.9167 10.3391 23.75C9.48581 24.5833 7.87081 25 5.49414 25Z" fill="black"/>
</svg>
