<svg width="1517" height="427" viewBox="0 0 1517 427" fill="none" xmlns="http://www.w3.org/2000/svg">
<path d="M1440.16 183.521L1440.16 241.037C1440.16 301.363 1391.25 350.267 1330.93 350.267V350.267C1270.6 350.267 1221.7 301.363 1221.7 241.038L1221.7 193.396C1221.7 129.112 1169.59 77 1105.3 77V77C1041.02 77 988.907 129.112 988.907 193.396L988.907 239.907C988.907 300.857 939.497 350.267 878.547 350.267V350.267C817.597 350.267 768.187 300.857 768.187 239.907L768.187 196.335C768.187 130.428 714.759 77.0001 648.852 77.0001V77.0001C582.945 77.0001 529.517 130.428 529.517 196.335L529.517 262.894C529.517 311.149 490.399 350.267 442.144 350.267L430.563 350.267C381.122 350.267 341.042 310.187 341.042 260.746V260.746C341.042 218.096 306.467 183.521 263.817 183.521L77 183.521L77 350.267" stroke="#00BCF1" stroke-width="153" stroke-linecap="round"/>
</svg>
