<svg width="291" height="91" viewBox="0 0 291 91" fill="none" xmlns="http://www.w3.org/2000/svg">
<path d="M290.67 45.7148H240.254V90.7952H290.67V45.7148Z" fill="#FFE600"/>
<path d="M239.404 0.457031V45.5374H188.992L239.404 0.457031Z" fill="#ED1C24"/>
<path d="M189.064 0.457031V45.5374H138.648L189.064 0.457031Z" fill="#ED1C24"/>
<path d="M239.828 45.7148V90.7952H189.416L239.828 45.7148Z" fill="#ED1C24"/>
<path d="M189.064 45.5371V90.6175H138.648L189.064 45.5371Z" fill="#ED1C24"/>
<path d="M138.648 90.6175V45.5371H189.064L138.648 90.6175Z" fill="white"/>
<path d="M188.992 90.6175V45.5371H239.404L188.992 90.6175Z" fill="#EFBFCC"/>
<path d="M138.648 45.5374V0.457031H189.064L138.648 45.5374Z" fill="white"/>
<path d="M188.992 45.5374V0.457031H239.404L188.992 45.5374Z" fill="#EFBFCC"/>
<path d="M51.7835 45.5937L102.199 45.5938L102.199 30.6189L51.7835 30.6189L51.7835 45.5937Z" fill="#FFE600"/>
<path d="M0.945637 60.3672L51.3613 60.3672L51.3613 45.3923L0.945638 45.3923L0.945637 60.3672Z" fill="#ED1C24"/>
<path d="M153.395 26.8602C161.549 26.8602 168.159 20.9497 168.159 13.6586C168.159 6.36759 161.549 0.457031 153.395 0.457031C145.241 0.457031 138.631 6.36759 138.631 13.6586C138.631 20.9497 145.241 26.8602 153.395 26.8602Z" fill="#1A1A1A"/>
<path d="M153.395 71.9403C161.549 71.9403 168.159 66.0297 168.159 58.7387C168.159 51.4477 161.549 45.5371 153.395 45.5371C145.241 45.5371 138.631 51.4477 138.631 58.7387C138.631 66.0297 145.241 71.9403 153.395 71.9403Z" fill="#1A1A1A"/>
</svg>
