<svg width="1090" height="539" viewBox="0 0 1090 539" fill="none" xmlns="http://www.w3.org/2000/svg">
<path d="M795 196.5C795 222.734 773.733 244 747.498 244C721.263 244 700 222.73 700 196.5C700 170.27 721.267 149 747.502 149C773.737 149 795 170.266 795 196.5ZM747.502 175.405C735.851 175.405 726.406 184.85 726.406 196.5C726.406 208.15 735.851 217.595 747.502 217.595C759.153 217.595 768.597 208.15 768.597 196.5C768.597 184.85 759.149 175.405 747.502 175.405Z" fill="#FFE600"/>
<path d="M48.2009 101.359L64 109.999L48.2009 118.639C45.01 120.383 42.3867 123.007 40.6396 126.2L32 142L23.3604 126.2C21.6159 123.009 18.9926 120.386 15.7991 118.639L0 110.001L15.7991 101.361C18.99 99.6168 21.6133 96.9934 23.3604 93.7997L32 78L40.6396 93.7997C42.3841 96.9908 45.0074 99.6142 48.2009 101.359Z" fill="#00BDF2"/>
<path d="M67.3473 74.3144L75 78.4994L67.3473 82.6844C65.8017 83.5294 64.5311 84.8001 63.6848 86.347L59.5 94L55.3152 86.347C54.4702 84.8013 53.1996 83.5306 51.6527 82.6844L44 78.5006L51.6527 74.3156C53.1983 73.4706 54.4689 72.1999 55.3152 70.653L59.5 63L63.6848 70.653C64.5298 72.1987 65.8004 73.4694 67.3473 74.3144Z" fill="#ED1C24"/>
<path d="M234.272 378.771L242.757 383.669L237.847 392.156" stroke="#00BDF2" stroke-width="4" stroke-linecap="round" stroke-linejoin="round"/>
<path d="M208.814 352.274C208.814 352.274 204.34 367.428 215.164 378.252C225.988 389.076 240.275 383.736 240.275 383.736" stroke="#02BFF4" stroke-width="4" stroke-linecap="round"/>
<path d="M572.272 297.78L580.757 292.882L575.847 284.395" stroke="#00BDF2" stroke-width="4" stroke-linecap="round" stroke-linejoin="round"/>
<path d="M546.814 324.277C546.814 324.277 542.34 309.123 553.164 298.299C563.988 287.475 578.275 292.815 578.275 292.815" stroke="#02BFF4" stroke-width="4" stroke-linecap="round"/>
<path d="M767.388 372.565L776.851 375.1L774.306 384.569" stroke="#00BDF2" stroke-width="4" stroke-linecap="round" stroke-linejoin="round"/>
<path d="M735.939 353.561C735.939 353.561 735.54 369.356 748.796 377.01C762.053 384.663 774.472 375.807 774.472 375.807" stroke="#02BFF4" stroke-width="4" stroke-linecap="round"/>
<path d="M1050.44 502.977L1043.63 529.73L1070.41 536.523" stroke="#00BDF2" stroke-width="4" stroke-linecap="round" stroke-linejoin="round"/>
<path d="M1047.08 399.49C1047.08 399.49 1086.45 420.278 1086.99 463.408C1087.53 506.539 1045 528 1045 528" stroke="#02BFF4" stroke-width="4" stroke-linecap="round"/>
<path d="M878.001 317.319L901.931 317.319L901.931 279.161L914.866 279.161L914.866 264.93L927.802 264.93L940.737 264.93L940.737 279.161L953.672 279.161L953.672 317.319L977.603 317.319L977.603 269.459L964.667 269.459L964.667 255.231L951.732 255.231L951.732 240.999L927.802 240.999L903.871 240.999L903.871 255.231L890.936 255.231L890.936 269.459L878.001 269.459L878.001 317.319Z" fill="#006FB9"/>
<path d="M953.672 341.25L977.603 341.25L977.603 317.32L953.672 317.32L953.672 341.25Z" fill="#ED1C24"/>
<path d="M878 341.25L901.931 341.25L901.931 317.32L878 317.32L878 341.25Z" fill="#ED1C24"/>
<path d="M266.001 243.727L266.001 216.32L183.501 216.32L183.501 243.727L266.001 243.727Z" fill="#FFE600"/>
<path d="M183.501 243.727L183.501 216.32L101.001 216.32L101.001 243.727L183.501 243.727Z" fill="#ED1C24"/>
<path d="M101 192.16C101 205.504 111.817 216.321 125.161 216.321C138.504 216.321 149.321 205.504 149.321 192.16C149.321 178.817 138.504 168 125.161 168C111.817 168 101 178.817 101 192.16Z" fill="#006FB9"/>
<path d="M480 273V310.027H442.973L480 273Z" fill="#ED1C24"/>
<path d="M443.027 273V310.027H406L443.027 273Z" fill="#ED1C24"/>
<path d="M480 310.027V347.052H442.973L480 310.027Z" fill="#ED1C24"/>
<path d="M443.027 310.027V347.052H406L443.027 310.027Z" fill="#ED1C24"/>
<path d="M406 347.052V310.027H443.027L406 347.052Z" fill="#E6F8FE"/>
<path d="M442.973 347.052V310.027H480L442.973 347.052Z" fill="#EFBFCC"/>
<path d="M406 310.027V273H443.027L406 310.027Z" fill="#E6F8FE"/>
<path d="M442.973 310.027V273H480L442.973 310.027Z" fill="#EFBFCC"/>
<path d="M352 326.16C352 339.504 362.817 350.321 376.161 350.321C389.504 350.321 400.321 339.504 400.321 326.16C400.321 312.817 389.504 302 376.161 302C362.817 302 352 312.817 352 326.16Z" fill="#00AC4F"/>
<path d="M636 210.256V198.489C636 192.325 641.037 187.33 647.251 187.33C653.465 187.33 658.502 192.325 658.502 198.489V210.417C658.502 214.823 661.976 218.552 666.418 218.682C671.033 218.819 674.827 215.137 674.827 210.591V179.111C674.827 171.638 677.71 164.394 683.044 159.113C688.313 153.894 695.306 151.016 702.75 151C709.844 150.985 716.721 153.658 721.902 158.461C727.628 163.77 730.796 171.023 730.796 178.754V186.007C730.796 189.435 733.597 192.214 737.053 192.214H752.749C758.963 192.214 764 197.209 764 203.372C764 209.536 758.963 214.531 752.749 214.531H737.429C729.706 214.531 722.218 211.616 716.746 206.21C711.293 200.82 708.291 193.642 708.291 186.01V178.891C708.291 175.944 705.987 173.433 703.016 173.321C699.895 173.203 697.319 175.687 697.319 178.757V210.256C697.319 218.319 694.242 226.131 688.547 231.884C682.734 237.762 674.946 241 666.656 241C658.367 241 650.578 237.759 644.765 231.884C639.077 226.128 636 218.316 636 210.256Z" fill="#ED1C24"/>
<path d="M1011.5 14L1015.25 40.0036C1016.43 48.1629 1022.84 54.573 1031 55.75L1057 59.5L1031 63.25C1022.84 64.427 1016.43 70.8371 1015.25 78.9964L1011.5 105L1007.75 78.9964C1006.57 70.8371 1000.16 64.427 992.004 63.25L966 59.5L992.004 55.75C1000.16 54.573 1006.57 48.1629 1007.75 40.0036L1011.5 14Z" fill="#ED1C24"/>
<path d="M954.5 0L956.684 15.1449C957.37 19.8971 961.103 23.6304 965.855 24.3159L981 26.5L965.855 28.6841C961.103 29.3696 957.37 33.1029 956.684 37.8551L954.5 53L952.316 37.8551C951.63 33.1029 947.897 29.3696 943.145 28.6841L928 26.5L943.145 24.3159C947.897 23.6304 951.63 19.8971 952.316 15.1449L954.5 0Z" fill="#00BDF2"/>
<rect x="750" y="226" width="63" height="4" fill="#00AC4F"/>
<rect x="750" y="226" width="63" height="4" fill="#00AC4F"/>
<rect x="750" y="226" width="63" height="4" fill="#00AC4F"/>
<rect x="750" y="234" width="63" height="4" fill="#00AC4F"/>
<rect x="750" y="234" width="63" height="4" fill="#00AC4F"/>
<rect x="750" y="234" width="63" height="4" fill="#00AC4F"/>
<rect x="750" y="242" width="63" height="4" fill="#00AC4F"/>
<rect x="750" y="242" width="63" height="4" fill="#00AC4F"/>
<rect x="750" y="242" width="63" height="4" fill="#00AC4F"/>
<rect x="433" y="158" width="63" height="4" fill="#EFBFCC"/>
<rect x="433" y="158" width="63" height="4" fill="#EFBFCC"/>
<rect x="433" y="158" width="63" height="4" fill="#EFBFCC"/>
<rect x="433" y="166" width="63" height="4" fill="#EFBFCC"/>
<rect x="433" y="166" width="63" height="4" fill="#EFBFCC"/>
<rect x="433" y="166" width="63" height="4" fill="#EFBFCC"/>
<rect x="433" y="174" width="63" height="4" fill="#EFBFCC"/>
<rect x="433" y="174" width="63" height="4" fill="#EFBFCC"/>
<rect x="433" y="174" width="63" height="4" fill="#EFBFCC"/>
</svg>
