<svg width="1120" height="477" viewBox="0 0 1120 477" fill="none" xmlns="http://www.w3.org/2000/svg">
<circle cx="174" cy="114" r="96.5" stroke="#32A858" stroke-width="35"/>
<path d="M727 190L731.533 221.433C732.956 231.296 740.704 239.044 750.567 240.467L782 245L750.567 249.533C740.704 250.956 732.956 258.704 731.533 268.567L727 300L722.467 268.567C721.044 258.704 713.296 250.956 703.433 249.533L672 245L703.433 240.467C713.296 239.044 721.044 231.296 722.467 221.433L727 190Z" fill="#FFE600"/>
<path d="M1119.65 107.803L1082.85 107.803L1082.85 71L1119.65 107.803Z" fill="#0070B9"/>
<path d="M1082.85 107.803L1046.05 107.803L1046.05 71L1082.85 107.803Z" fill="#006FB9"/>
<path d="M519.932 57.1807H449V80.743H519.932V57.1807Z" fill="#FFE600"/>
<path d="M413.932 33H343V56.5624H413.932V33Z" fill="#00BDF2"/>
<path d="M590.866 76.4131H519.934V88.1935H590.866V76.4131Z" fill="#00BDF2"/>
<path d="M141.784 65V135.932H70.8574L141.784 65Z" fill="#ED1C24"/>
<path d="M70.9594 65V135.932H0.0273438L70.9594 65Z" fill="#ED1C24"/>
<path d="M20.7722 106.544C32.2443 106.544 41.5443 97.2443 41.5443 85.7722C41.5443 74.3 32.2443 65 20.7722 65C9.30001 65 0 74.3 0 85.7722C0 97.2443 9.30001 106.544 20.7722 106.544Z" fill="#1A1A1A"/>
</svg>
