<svg width="1120" height="375" viewBox="0 0 1120 375" fill="none" xmlns="http://www.w3.org/2000/svg">
<path d="M107.78 0H72.041V31.9564H107.78V0Z" fill="#0070B9"/>
<path d="M71.437 31.9609V63.9174H35.7012L71.437 31.9609Z" fill="#ED1C24"/>
<path d="M35.7522 31.9609V63.9174H0.0136719L35.7522 31.9609Z" fill="#ED1C24"/>
<path d="M71.7359 64.0439V96.0004H36L71.7359 64.0439Z" fill="#ED1C24"/>
<path d="M35.7522 63.918V95.8744H0.0136719L35.7522 63.918Z" fill="#ED1C24"/>
<path d="M35.7012 95.8744V63.918H71.437L35.7012 95.8744Z" fill="#EFBFCC"/>
<path d="M35.7012 63.9174V31.9609H71.437L35.7012 63.9174Z" fill="#EFBFCC"/>
<path d="M90.0232 10.6152L125.762 10.6152L125.762 -0.000127792L90.0232 -0.000130586L90.0232 10.6152Z" fill="#00BDF2"/>
<path d="M10.4659 50.6776C16.246 50.6776 20.9318 46.4877 20.9318 41.3192C20.9318 36.1508 16.246 31.9609 10.4659 31.9609C4.68573 31.9609 0 36.1508 0 41.3192C0 46.4877 4.68573 50.6776 10.4659 50.6776Z" fill="#1A1A1A"/>
<path d="M10.4659 82.6346C16.246 82.6346 20.9318 78.4447 20.9318 73.2763C20.9318 68.1078 16.246 63.918 10.4659 63.918C4.68574 63.918 0 68.1078 0 73.2763C0 78.4447 4.68574 82.6346 10.4659 82.6346Z" fill="#1A1A1A"/>
<path d="M1120 215.5C1120 303.591 1048.59 375 960.494 375C872.399 375 801 303.579 801 215.5C801 127.421 872.412 56 960.506 56C1048.6 56 1120 127.409 1120 215.5ZM960.506 144.667C921.384 144.667 889.67 176.379 889.67 215.5C889.67 254.621 921.384 286.333 960.506 286.333C999.629 286.333 1031.34 254.621 1031.34 215.5C1031.34 176.379 999.616 144.667 960.506 144.667Z" fill="#FFE600"/>
</svg>
