<svg width="929" height="163" viewBox="0 0 929 163" fill="none" xmlns="http://www.w3.org/2000/svg">
<path d="M897.999 0H837.617V53.9921H897.999V0Z" fill="#0070B9"/>
<path d="M836.598 54V107.992H776.221L836.598 54Z" fill="#ED1C24"/>
<path d="M776.308 54V107.992H715.926L776.308 54Z" fill="#ED1C24"/>
<path d="M837.106 108.205V162.197H776.729L837.106 108.205Z" fill="#ED1C24"/>
<path d="M776.308 107.992V161.984H715.926L776.308 107.992Z" fill="#ED1C24"/>
<path d="M715.926 161.984V107.992H776.308L715.926 161.984Z" fill="white"/>
<path d="M776.221 161.984V107.992H836.598L776.221 161.984Z" fill="#EFBFCC"/>
<path d="M715.926 107.992V54H776.308L715.926 107.992Z" fill="white"/>
<path d="M776.221 107.992V54H836.598L776.221 107.992Z" fill="#EFBFCC"/>
<path d="M611.889 108.061L672.271 108.061L672.271 90.1253L611.889 90.1253L611.889 108.061Z" fill="#00BDF2"/>
<path d="M868.001 17.9355L928.383 17.9355L928.383 0.00031662L868.001 0.0003119L868.001 17.9355Z" fill="#00BDF2"/>
<path d="M551.001 126.154L611.383 126.154L611.383 108.219L551.001 108.219L551.001 126.154Z" fill="#FFE600"/>
<path d="M733.585 85.6227C743.351 85.6227 751.268 78.5438 751.268 69.8114C751.268 61.079 743.351 54 733.585 54C723.819 54 715.902 61.079 715.902 69.8114C715.902 78.5438 723.819 85.6227 733.585 85.6227Z" fill="#1A1A1A"/>
<path d="M733.585 139.615C743.351 139.615 751.268 132.536 751.268 123.804C751.268 115.071 743.351 107.992 733.585 107.992C723.819 107.992 715.902 115.071 715.902 123.804C715.902 132.536 723.819 139.615 733.585 139.615Z" fill="#1A1A1A"/>
<path d="M106.641 76.7051H160V58.9826L106.641 58.9826V76.7051Z" fill="#006FB9"/>
<path d="M106.639 72.374V125.733H53.2832L106.639 72.374Z" fill="#00BDF2"/>
<path d="M53.3594 72.374V125.733H0L53.3594 72.374Z" fill="#00BDF2"/>
<path d="M0 125.733V72.374H53.3594L0 125.733Z" fill="white"/>
<path opacity="0.5" d="M53.2832 125.733V72.374H106.639L53.2832 125.733Z" fill="#00BDF2"/>
</svg>
