<svg width="42" height="28" viewBox="0 0 42 28" fill="none" xmlns="http://www.w3.org/2000/svg">
<path d="M0 18.4352V14.7742C0 12.8568 1.65271 11.3026 3.69165 11.3026C5.73059 11.3026 7.38331 12.8568 7.38331 14.7742V18.4854C7.38331 19.8561 8.52347 21.0162 9.98102 21.0568C11.4951 21.0993 12.74 19.9536 12.74 18.5395V8.74575C12.74 6.42069 13.686 4.16714 15.4363 2.52405C17.1651 0.900287 19.4597 0.00485067 21.9023 2.09182e-05C24.2299 -0.00480883 26.4866 0.826875 28.1866 2.3212C30.0653 3.97298 31.1048 6.22944 31.1048 8.63465V10.8911C31.1048 11.9575 32.0242 12.8221 33.1582 12.8221H38.3083C40.3473 12.8221 42 14.3763 42 16.2937C42 18.2111 40.3473 19.7653 38.3083 19.7653H33.2814C30.7474 19.7653 28.2904 18.8583 26.4949 17.1766C24.7055 15.4997 23.7205 13.2664 23.7205 10.8921V8.67716C23.7205 7.76048 22.9645 6.97902 21.9897 6.94424C20.9656 6.90753 20.1202 7.68029 20.1202 8.63562V18.4352C20.1202 20.9437 19.1106 23.374 17.2421 25.164C15.3346 26.9925 12.779 28 10.0591 28C7.33914 28 4.78353 26.9915 2.87608 25.164C1.00971 23.3731 0 20.9427 0 18.4352Z" fill="#00BDF2"/>
</svg>
