<svg width="23" height="17" viewBox="0 0 23 17" fill="none" xmlns="http://www.w3.org/2000/svg">
<path d="M0 10.791V8.64798C0 7.52567 0.905058 6.61591 2.02162 6.61591C3.13818 6.61591 4.04324 7.52567 4.04324 8.64798V10.8203C4.04324 11.6227 4.66761 12.3017 5.4658 12.3255C6.29492 12.3503 6.97667 11.6797 6.97667 10.852V5.11927C6.97667 3.75831 7.49473 2.43921 8.45319 1.47744C9.39995 0.526977 10.6565 0.00283931 11.9941 1.22443e-05C13.2688 -0.00281482 14.5046 0.484006 15.4355 1.3587C16.4643 2.32556 17.0336 3.64636 17.0336 5.05424V6.37505C17.0336 6.99926 17.537 7.50531 18.158 7.50531H20.9784C22.0949 7.50531 23 8.41508 23 9.53741C23 10.6597 22.0949 11.5695 20.9784 11.5695H18.2255C16.8378 11.5695 15.4923 11.0386 14.5091 10.0542C13.5292 9.07266 12.9898 7.7654 12.9898 6.37562V5.07912C12.9898 4.54255 12.5758 4.08512 12.042 4.06476C11.4811 4.04328 11.0182 4.49561 11.0182 5.0548V10.791C11.0182 12.2593 10.4653 13.6818 9.44211 14.7296C8.39753 15.7999 6.99804 16.3896 5.50855 16.3896C4.01905 16.3896 2.61955 15.7993 1.57499 14.7296C0.552936 13.6813 0 12.2587 0 10.791Z" fill="#006FB9"/>
</svg>
