<svg width="149" height="149" viewBox="0 0 149 149" fill="none" xmlns="http://www.w3.org/2000/svg">
<path fill-rule="evenodd" clip-rule="evenodd" d="M55.5369 78.7401C55.5369 88.6383 63.561 96.6623 73.4591 96.6623C83.3573 96.6623 91.3814 88.6383 91.3814 78.7401C91.3814 68.8419 83.3573 60.8178 73.4591 60.8178C63.561 60.8178 55.5369 68.8419 55.5369 78.7401ZM38.72 78.7401C38.72 97.926 54.2733 113.479 73.4591 113.479C92.645 113.479 108.198 97.926 108.198 78.7401C108.198 59.5542 92.645 44.001 73.4591 44.001C54.2733 44.001 38.72 59.5542 38.72 78.7401Z" fill="#FFE600"/>
<rect x="118.491" y="44.001" width="34.7391" height="87.4911" transform="rotate(90 118.491 44.001)" fill="white"/>
</svg>
