<svg width="81" height="54" viewBox="0 0 81 54" fill="none" xmlns="http://www.w3.org/2000/svg">
<path d="M0 35.5467V28.4875C0 24.7904 3.18738 21.7936 7.1196 21.7936C11.0519 21.7936 14.2392 24.7904 14.2392 28.4875V35.6435C14.2392 38.2864 16.4381 40.5232 19.2491 40.6016C22.1691 40.6835 24.57 38.4744 24.57 35.7477V16.8635C24.57 12.3803 26.3945 8.03504 29.7699 4.86685C33.1042 1.73593 37.5295 0.00935301 42.2402 4.03343e-05C46.7292 -0.00927235 51.0813 1.59437 54.3599 4.47571C57.983 7.66067 59.9878 12.0115 59.9878 16.6493V21.0002C59.9878 23.0564 61.7609 24.7234 63.9479 24.7234H73.8804C77.8127 24.7234 81 27.7203 81 31.4173C81 35.1144 77.8127 38.1112 73.8804 38.1112H64.1855C59.2985 38.1112 54.56 36.3624 51.0972 33.1197C47.6464 29.8864 45.7466 25.5801 45.7466 21.002V16.7312C45.7466 14.9637 44.2886 13.4569 42.4086 13.3898C40.4336 13.319 38.8033 14.8091 38.8033 16.6511V35.5467C38.8033 40.3835 36.8561 45.0696 33.2527 48.5211C29.5739 52.0467 24.6453 53.9893 19.3997 53.9893C14.154 53.9893 9.22539 52.0448 5.54672 48.5211C1.9473 45.0677 0 40.3816 0 35.5467Z" fill="#00BDF2"/>
</svg>
