<svg width="29" height="21" viewBox="0 0 29 21" fill="none" xmlns="http://www.w3.org/2000/svg">
<path d="M0 13.33V10.6828C0 9.29641 1.14116 8.1726 2.54899 8.1726C3.95684 8.1726 5.098 9.29641 5.098 10.6828V13.3663C5.098 14.3574 5.88525 15.1962 6.89166 15.2256C7.93708 15.2563 8.79667 14.4279 8.79667 13.4054V6.3238C8.79667 4.64262 9.44987 3.01314 10.6584 1.82507C11.8521 0.650972 13.4365 0.00350738 15.123 1.51254e-05C16.7302 -0.00347713 18.2884 0.59789 19.4622 1.67839C20.7594 2.87275 21.4771 4.50433 21.4771 6.24347V7.87506C21.4771 8.64615 22.1119 9.27126 22.8949 9.27126H26.451C27.8588 9.27126 29 10.3951 29 11.7815C29 13.1679 27.8588 14.2917 26.451 14.2917H22.98C21.2303 14.2917 19.5338 13.6359 18.2941 12.4199C17.0586 11.2074 16.3784 9.59255 16.3784 7.87576V6.27421C16.3784 5.61138 15.8564 5.04633 15.1833 5.02118C14.4762 4.99464 13.8925 5.5534 13.8925 6.24417V13.33C13.8925 15.1438 13.1954 16.9011 11.9053 18.1954C10.5882 19.5175 8.82362 20.246 6.94556 20.246C5.0675 20.246 3.30292 19.5168 1.98586 18.1954C0.69718 16.9004 0 15.1431 0 13.33Z" fill="#00BDF2"/>
</svg>
