<svg width="376" height="484" viewBox="0 0 376 484" fill="none" xmlns="http://www.w3.org/2000/svg">
<path d="M325 50.4802L375.48 50.4802V-3.05176e-05L325 -3.05176e-05V50.4802Z" fill="#006FB9"/>
<path d="M290.096 50.9041H239.616V101.384H290.096V50.9041Z" fill="#FFE600"/>
<path d="M238.765 0.224854V50.7051H188.288L238.765 0.224854Z" fill="#ED1C24"/>
<path d="M188.36 0.224854V50.7051H137.88L188.36 0.224854Z" fill="#ED1C24"/>
<path d="M239.188 50.9041V101.384H188.712L239.188 50.9041Z" fill="#ED1C24"/>
<path d="M188.36 50.7052V101.185H137.88L188.36 50.7052Z" fill="#ED1C24"/>
<path d="M137.88 101.185V50.7052H188.36L137.88 101.185Z" fill="white"/>
<path d="M188.288 101.185V50.7052H238.765L188.288 101.185Z" fill="#EFBFCC"/>
<path d="M137.88 50.7051V0.224854H188.36L137.88 50.7051Z" fill="white"/>
<path d="M188.288 50.7051V0.224854H238.765L188.288 50.7051Z" fill="#EFBFCC"/>
<path d="M50.9039 50.7687L101.384 50.7687L101.384 34L50.9039 34L50.9039 50.7687Z" fill="#FFE600"/>
<path d="M-3.05176e-05 67.3125L50.4802 67.3125L50.4802 50.5439L-2.90516e-05 50.5439L-3.05176e-05 67.3125Z" fill="#ED1C24"/>
<path d="M152.644 29.7907C160.808 29.7907 167.427 23.1722 167.427 15.0078C167.427 6.8434 160.808 0.224854 152.644 0.224854C144.48 0.224854 137.861 6.8434 137.861 15.0078C137.861 23.1722 144.48 29.7907 152.644 29.7907Z" fill="#1A1A1A"/>
<path d="M152.644 80.2709C160.808 80.2709 167.427 73.6524 167.427 65.488C167.427 57.3236 160.808 50.7051 152.644 50.7051C144.48 50.7051 137.861 57.3236 137.861 65.488C137.861 73.6524 144.48 80.2709 152.644 80.2709Z" fill="#1A1A1A"/>
<path d="M50.9039 449.769L101.384 449.769L101.384 433L50.9039 433L50.9039 449.769Z" fill="#FFE600"/>
<path d="M-3.05176e-05 433.769L50.4802 433.769L50.4802 417L-2.90516e-05 417L-3.05176e-05 433.769Z" fill="#0070B9"/>
<path d="M375.476 433V483.48H325L375.476 433Z" fill="#ED1C24"/>
<path d="M339.783 462.566C347.947 462.566 354.566 455.947 354.566 447.783C354.566 439.619 347.947 433 339.783 433C331.619 433 325 439.619 325 447.783C325 455.947 331.619 462.566 339.783 462.566Z" fill="#1A1A1A"/>
</svg>
