<svg width="30" height="22" viewBox="0 0 30 22" fill="none" xmlns="http://www.w3.org/2000/svg">
<g clip-path="url(#clip0)">
<path d="M0 13.6186V10.9714C0 9.58498 1.18051 8.46117 2.63689 8.46117C4.09328 8.46117 5.27379 9.58498 5.27379 10.9714V13.6549C5.27379 14.646 6.08819 15.4848 7.1293 15.5142C8.21077 15.5449 9.1 14.7165 9.1 13.694V6.61237C9.1 4.93119 9.77573 3.30171 11.0259 2.11364C12.2608 0.939546 13.8998 0.292082 15.6445 0.288589C17.3071 0.285097 18.919 0.886464 20.1333 1.96696C21.4752 3.16132 22.2177 4.7929 22.2177 6.53204V8.16363C22.2177 8.93472 22.8744 9.55983 23.6844 9.55983H27.3631C28.8195 9.55983 30 10.6837 30 12.0701C30 13.4565 28.8195 14.5803 27.3631 14.5803H23.7724C21.9624 14.5803 20.2074 13.9245 18.9249 12.7085C17.6468 11.496 16.9432 9.88112 16.9432 8.16433V6.56278C16.9432 5.89995 16.4032 5.3349 15.7069 5.30975C14.9754 5.28321 14.3716 5.84197 14.3716 6.53274V13.6186C14.3716 15.4324 13.6504 17.1897 12.3158 18.484C10.9533 19.8061 9.12788 20.5346 7.18506 20.5346C5.24224 20.5346 3.41681 19.8054 2.05434 18.484C0.721221 17.189 0 15.4317 0 13.6186Z" fill="#00BDF2"/>
</g>
<defs>
<clipPath id="clip0">
<rect width="30" height="21" fill="white" transform="translate(0 0.288574)"/>
</clipPath>
</defs>
</svg>
