<svg width="1120" height="489" viewBox="0 0 1120 489" fill="none" xmlns="http://www.w3.org/2000/svg">
<path d="M977.169 51.208H906.616V65.1328H977.169V51.208Z" fill="#FFE600"/>
<path d="M1048.1 28H977.169V51.5624H1048.1V28Z" fill="#00BDF2"/>
<path d="M364.786 397.559H435.718V374H364.786V397.559Z" fill="#006FB9"/>
<path d="M364.783 391.801V462.733H293.856L364.783 391.801Z" fill="#00BDF2"/>
<path d="M293.957 391.801V462.733H223.025L293.957 391.801Z" fill="#00BDF2"/>
<path d="M223.025 462.733V391.801H293.957L223.025 462.733Z" fill="white"/>
<path opacity="0.5" d="M293.856 462.733V391.801H364.783L293.856 462.733Z" fill="#00BDF2"/>
<path d="M506.931 313H435.999V336.562H506.931V313Z" fill="#FFE600"/>
<path d="M78.9321 298.819H8V322.381H78.9321V298.819Z" fill="#00BDF2"/>
<path d="M577.865 332.232H506.933V344.012H577.865V332.232Z" fill="#00BDF2"/>
<path d="M223.122 321V391.932H152.195L223.122 321Z" fill="#ED1C24"/>
<path d="M152.296 321V391.932H81.3639L152.296 321Z" fill="#ED1C24"/>
<path d="M102.109 362.544C113.581 362.544 122.881 353.244 122.881 341.772C122.881 330.3 113.581 321 102.109 321C90.6369 321 81.3369 330.3 81.3369 341.772C81.3369 353.244 90.6369 362.544 102.109 362.544Z" fill="#1A1A1A"/>
<path d="M243.771 433.346C255.243 433.346 264.543 424.046 264.543 412.573C264.543 401.101 255.243 391.801 243.771 391.801C232.299 391.801 222.999 401.101 222.999 412.573C222.999 424.046 232.299 433.346 243.771 433.346Z" fill="#1A1A1A"/>
<path d="M42.9736 69.8032L79.7768 69.8032L79.7768 33L42.9736 69.8032Z" fill="#FFE600"/>
<path d="M79.7761 69.8032L116.577 69.8032L116.577 33L79.7761 69.8032Z" fill="#FFE600"/>
<path d="M79.7768 33L42.9736 33L42.9736 69.8032L79.7768 33Z" fill="white"/>
<path d="M116.653 33L79.8495 33L79.8495 69.8032L116.653 33Z" fill="white"/>
<path d="M1119.65 469.803L1082.85 469.803L1082.85 433L1119.65 469.803Z" fill="#0070B9"/>
<path d="M1082.85 469.803L1046.05 469.803L1046.05 433L1082.85 469.803Z" fill="#006FB9"/>
</svg>
