<svg width="376" height="102" viewBox="0 0 376 102" fill="none" xmlns="http://www.w3.org/2000/svg">
<path d="M325 50.4805L375.48 50.4805V0.000213623L325 0.000213623V50.4805Z" fill="#006FB9"/>
<path d="M290.096 50.9043H239.616V101.385H290.096V50.9043Z" fill="#FFE600"/>
<path d="M238.765 0.225098V50.7054H188.288L238.765 0.225098Z" fill="#ED1C24"/>
<path d="M188.36 0.225098V50.7054H137.88L188.36 0.225098Z" fill="#ED1C24"/>
<path d="M239.188 50.9043V101.385H188.712L239.188 50.9043Z" fill="#ED1C24"/>
<path d="M188.36 50.7051V101.185H137.88L188.36 50.7051Z" fill="#ED1C24"/>
<path d="M137.88 101.185V50.7051H188.36L137.88 101.185Z" fill="white"/>
<path d="M188.288 101.185V50.7051H238.765L188.288 101.185Z" fill="#EFBFCC"/>
<path d="M137.88 50.7054V0.225098H188.36L137.88 50.7054Z" fill="white"/>
<path d="M188.288 50.7054V0.225098H238.765L188.288 50.7054Z" fill="#EFBFCC"/>
<path d="M50.904 50.7686L101.384 50.7686L101.384 33.9999L50.904 33.9999L50.904 50.7686Z" fill="#FFE600"/>
<path d="M-3.05176e-05 67.3125L50.4802 67.3125L50.4802 50.5439L-2.90516e-05 50.5439L-3.05176e-05 67.3125Z" fill="#ED1C24"/>
<path d="M152.644 29.791C160.808 29.791 167.427 23.1724 167.427 15.008C167.427 6.84364 160.808 0.225098 152.644 0.225098C144.48 0.225098 137.861 6.84364 137.861 15.008C137.861 23.1724 144.48 29.791 152.644 29.791Z" fill="#1A1A1A"/>
<path d="M152.644 80.2709C160.808 80.2709 167.427 73.6524 167.427 65.488C167.427 57.3236 160.808 50.7051 152.644 50.7051C144.48 50.7051 137.861 57.3236 137.861 65.488C137.861 73.6524 144.48 80.2709 152.644 80.2709Z" fill="#1A1A1A"/>
</svg>
