<svg width="352" height="196" viewBox="0 0 352 196" fill="none" xmlns="http://www.w3.org/2000/svg">
<path d="M0 0H332C343.046 0 352 8.95431 352 20V175C352 186.046 343.046 195 332 195H0V0Z" fill="#FFE600"/>
<g filter="url(#filter0_d)">
<path d="M62 30C62 24.4772 66.4772 20 72 20H284C289.523 20 294 24.4772 294 30V161C294 166.523 289.523 171 284 171H72C66.4772 171 62 166.523 62 161V30Z" fill="white"/>
<path d="M62 30C62 24.4772 66.4772 20 72 20H284C289.523 20 294 24.4772 294 30V33H62V30Z" fill="#00BDF2"/>
<path d="M101.656 78H108.312L102.424 69.712C105.176 68.816 106.904 66.672 106.904 63.088C106.904 58.416 103.96 55.6 99.224 55.6H89.24V78H94.68V70.224H96.376L101.656 78ZM101.4 63.152C101.4 64.688 100.504 65.456 98.616 65.456H94.68V60.784H98.616C100.44 60.784 101.4 61.584 101.4 63.152ZM117.764 59.984C112.292 59.984 108.484 63.984 108.484 69.2C108.484 74.416 112.26 78.416 117.892 78.416C121.7 78.416 125.38 76.592 126.596 72.24H120.996C120.58 73.52 119.364 74.224 117.892 74.224C116.004 74.224 114.276 73.072 114.02 70.352H126.852C127.396 64.56 123.588 59.984 117.764 59.984ZM117.732 64.176C119.684 64.176 120.836 65.36 121.188 67.056H114.18C114.628 65.36 115.78 64.176 117.732 64.176ZM136.947 78.416C141.459 78.416 145.011 76.4 145.011 72.336C145.011 68.688 142.163 67.632 136.915 66.48C134.803 66.032 134.291 65.968 134.291 65.36C134.291 64.592 135.091 64.112 136.691 64.112C138.419 64.112 139.123 64.688 139.347 65.52H144.851C144.307 62.16 141.875 60.016 136.915 60.016C131.827 60.016 128.787 62.256 128.787 66.064C128.787 69.168 130.835 70.512 135.859 71.6C138.867 72.24 139.411 72.4 139.411 73.104C139.411 73.84 138.835 74.32 137.011 74.32C134.483 74.32 133.779 73.392 133.555 72.432H128.051C128.691 76.144 132.179 78.416 136.947 78.416ZM158.254 60.4V69.744C158.254 72.176 157.166 73.232 155.086 73.232C152.942 73.232 152.366 72.112 152.366 70.192V60.4H146.926V71.408C146.926 75.696 149.326 78.416 153.198 78.416C155.342 78.416 156.974 77.584 158.254 75.984V78H163.694V60.4H158.254ZM187.795 59.984C185.363 59.984 183.315 61.104 181.971 63.056C180.947 61.104 179.091 59.984 176.691 59.984C174.611 59.984 172.979 60.816 171.699 62.384V60.4H166.259V78H171.699V68.656C171.699 66.224 172.787 65.168 174.771 65.168C176.819 65.168 177.395 66.288 177.395 68.208V78H182.835V68.656C182.835 66.224 183.923 65.168 185.907 65.168C187.955 65.168 188.531 66.288 188.531 68.208V78H193.971V66.992C193.971 62.704 191.571 59.984 187.795 59.984ZM205.329 59.984C199.857 59.984 196.049 63.984 196.049 69.2C196.049 74.416 199.825 78.416 205.457 78.416C209.265 78.416 212.945 76.592 214.161 72.24H208.561C208.145 73.52 206.929 74.224 205.457 74.224C203.569 74.224 201.841 73.072 201.585 70.352H214.417C214.961 64.56 211.153 59.984 205.329 59.984ZM205.297 64.176C207.249 64.176 208.401 65.36 208.753 67.056H201.745C202.193 65.36 203.345 64.176 205.297 64.176Z" fill="black"/>
<rect x="87" y="99" width="118" height="13" fill="#E3E3E3"/>
<rect x="228" y="99" width="36" height="3" fill="#00BDF2"/>
<rect x="228" y="161" width="36" height="3" fill="#E3E3E3"/>
<rect x="228" y="104" width="36" height="3" fill="#00BDF2"/>
<rect x="228" y="166" width="23" height="3" fill="#E3E3E3"/>
<rect x="87" y="119" width="118" height="13" fill="#E3E3E3"/>
<rect x="87" y="140" width="102" height="13" fill="#E3E3E3"/>
<rect x="87" y="161" width="118" height="10" fill="#E3E3E3"/>
</g>
<defs>
<filter id="filter0_d" x="57" y="15" width="262" height="181" filterUnits="userSpaceOnUse" color-interpolation-filters="sRGB">
<feFlood flood-opacity="0" result="BackgroundImageFix"/>
<feColorMatrix in="SourceAlpha" type="matrix" values="0 0 0 0 0 0 0 0 0 0 0 0 0 0 0 0 0 0 127 0"/>
<feOffset dx="10" dy="10"/>
<feGaussianBlur stdDeviation="7.5"/>
<feColorMatrix type="matrix" values="0 0 0 0 0 0 0 0 0 0 0 0 0 0 0 0 0 0 0.15 0"/>
<feBlend mode="normal" in2="BackgroundImageFix" result="effect1_dropShadow"/>
<feBlend mode="normal" in="SourceGraphic" in2="effect1_dropShadow" result="shape"/>
</filter>
</defs>
</svg>
