<svg width="380" height="2840" viewBox="0 0 380 2840" fill="none" xmlns="http://www.w3.org/2000/svg">
<path d="M380 63.5C380 98.5707 351.57 127 316.498 127C281.425 127 253 98.5657 253 63.5C253 28.4342 281.43 0 316.502 0C351.575 0 380 28.4293 380 63.5ZM316.502 35.2999C300.927 35.2999 288.301 47.9252 288.301 63.5C288.301 79.0748 300.927 91.7001 316.502 91.7001C332.078 91.7001 344.704 79.0748 344.704 63.5C344.704 47.9252 332.073 35.2999 316.502 35.2999Z" fill="#E6F8FE"/>
<path d="M117.584 1839L117.585 1861.58L153.596 1861.58L153.596 1873.79L167.028 1873.79L167.028 1886L167.028 1898.21L153.596 1898.21L153.596 1910.42L117.585 1910.42L117.585 1933L162.753 1933L162.753 1920.79L176.181 1920.79L176.181 1908.58L189.612 1908.58L189.612 1886L189.612 1863.42L176.181 1863.42L176.181 1851.21L162.753 1851.21L162.753 1839L117.584 1839Z" fill="#006FB9"/>
<path d="M95.0002 1910.42L95.0002 1933L117.584 1933L117.584 1910.42L95.0002 1910.42Z" fill="#ED1C24"/>
<path d="M95.0002 1839L95.0002 1861.58L117.584 1861.58L117.584 1839L95.0002 1839Z" fill="#ED1C24"/>
<rect x="50.7377" y="1903.93" width="22" height="81" transform="rotate(38.7844 50.7377 1903.93)" fill="#006FB9"/>
<rect x="65.1447" y="1886" width="22" height="23" transform="rotate(38.7844 65.1447 1886)" fill="#00BDF2"/>
<path d="M240.845 2716H220.272V2777.93H240.845V2716Z" fill="#FFE600"/>
<path d="M240.845 2777.93H220.272V2839.86H240.845V2777.93Z" fill="#00AB4E"/>
<path d="M202.136 2783.27C212.152 2783.27 220.272 2775.15 220.272 2765.14C220.272 2755.12 212.152 2747 202.136 2747C192.12 2747 184 2755.12 184 2765.14C184 2775.15 192.12 2783.27 202.136 2783.27Z" fill="#00BDF2"/>
</svg>
