<svg width="996" height="1268" viewBox="0 0 996 1268" fill="none" xmlns="http://www.w3.org/2000/svg">
<path d="M947 29.1605C947 42.504 957.817 53.321 971.16 53.321C984.504 53.321 995.321 42.504 995.321 29.1605C995.321 15.817 984.504 5 971.16 5C957.817 5 947 15.817 947 29.1605Z" fill="#00BDF2"/>
<path d="M317.5 0L319.684 15.1449C320.37 19.8971 324.103 23.6304 328.855 24.3159L344 26.5L328.855 28.6841C324.103 29.3696 320.37 33.1029 319.684 37.8551L317.5 53L315.316 37.8551C314.63 33.1029 310.897 29.3696 306.145 28.6841L291 26.5L306.145 24.3159C310.897 23.6304 314.63 19.8971 315.316 15.1449L317.5 0Z" fill="#00BDF2"/>
<path d="M382 1108.5C382 1196.59 310.588 1268 222.494 1268C134.399 1268 63 1196.58 63 1108.5C63 1020.42 134.412 949 222.506 949C310.601 949 382 1020.41 382 1108.5ZM222.506 1037.67C183.384 1037.67 151.67 1069.38 151.67 1108.5C151.67 1147.62 183.384 1179.33 222.506 1179.33C261.629 1179.33 293.342 1147.62 293.342 1108.5C293.342 1069.38 261.616 1037.67 222.506 1037.67Z" fill="#FFE600"/>
<path d="M505 880H444.618V933.992H505V880Z" fill="#0070B9"/>
<path d="M443.599 934V987.992H383.221L443.599 934Z" fill="#ED1C24"/>
<path d="M383.308 934V987.992H322.926L383.308 934Z" fill="#ED1C24"/>
<path d="M444.106 988.205V1042.2H383.728L444.106 988.205Z" fill="#ED1C24"/>
<path d="M383.308 987.992V1041.98H322.926L383.308 987.992Z" fill="#ED1C24"/>
<path d="M322.926 1041.98V987.992H383.308L322.926 1041.98Z" fill="white"/>
<path d="M383.221 1041.98V987.992H443.599L383.221 1041.98Z" fill="#EFBFCC"/>
<path d="M322.926 987.992V934H383.308L322.926 987.992Z" fill="white"/>
<path d="M383.221 987.992V934H443.599L383.221 987.992Z" fill="#EFBFCC"/>
<path d="M218.889 988.06L279.271 988.06L279.271 970.125L218.889 970.125L218.889 988.06Z" fill="#00BDF2"/>
<path d="M475 897.935L535.382 897.935L535.382 880L475 880L475 897.935Z" fill="#00BDF2"/>
<path d="M158 1006.15L218.382 1006.15L218.382 988.219L158 988.219L158 1006.15Z" fill="#ED1C24"/>
<path d="M340.585 965.623C350.351 965.623 358.268 958.544 358.268 949.811C358.268 941.079 350.351 934 340.585 934C330.819 934 322.903 941.079 322.903 949.811C322.903 958.544 330.819 965.623 340.585 965.623Z" fill="#1A1A1A"/>
<path d="M340.585 1019.61C350.351 1019.61 358.268 1012.54 358.268 1003.8C358.268 995.071 350.351 987.992 340.585 987.992C330.819 987.992 322.903 995.071 322.903 1003.8C322.903 1012.54 330.819 1019.61 340.585 1019.61Z" fill="#1A1A1A"/>
<path d="M39.5 819L42.7555 841.575C43.7773 848.658 49.3421 854.223 56.4255 855.245L79 858.5L56.4255 861.755C49.3421 862.777 43.7773 868.342 42.7555 875.425L39.5 898L36.2445 875.425C35.2227 868.342 29.6579 862.777 22.5745 861.755L0 858.5L22.5745 855.245C29.6579 854.223 35.2227 848.658 36.2445 841.575L39.5 819Z" fill="#ED1C24"/>
</svg>
