<svg width="1112" height="99" viewBox="0 0 1112 99" fill="none" xmlns="http://www.w3.org/2000/svg">
<path d="M356.786 98.7397L427.718 98.7397V75.1808H356.786V98.7397Z" fill="#006FB9"/>
<path d="M498.931 14.1807H427.999V37.743H498.931V14.1807Z" fill="#FFE600"/>
<path d="M70.9321 0H0V23.5624H70.9321V0Z" fill="#00BDF2"/>
<path d="M569.865 33.4126H498.933V45.193H569.865V33.4126Z" fill="#00BDF2"/>
<path d="M215.122 22.1807V93.1127H144.195L215.122 22.1807Z" fill="#ED1C24"/>
<path d="M144.296 22.1807V93.1127H73.3638L144.296 22.1807Z" fill="#ED1C24"/>
<path d="M94.1091 63.725C105.581 63.725 114.881 54.425 114.881 42.9528C114.881 31.4807 105.581 22.1807 94.1091 22.1807C82.6369 22.1807 73.3369 31.4807 73.3369 42.9528C73.3369 54.425 82.6369 63.725 94.1091 63.725Z" fill="#1A1A1A"/>
<path d="M1111.65 97.8032L1074.85 97.8032L1074.85 61L1111.65 97.8032Z" fill="#0070B9"/>
<path d="M1074.85 97.8032L1038.05 97.8032L1038.05 61L1074.85 97.8032Z" fill="#006FB9"/>
</svg>
