<svg width="115" height="77" viewBox="0 0 115 77" fill="none" xmlns="http://www.w3.org/2000/svg">
<path fill-rule="evenodd" clip-rule="evenodd" d="M76.6666 55.6666C86.0554 55.6666 93.6666 48.0554 93.6666 38.6666C93.6666 29.2777 86.0554 21.6666 76.6666 21.6666C67.2777 21.6666 59.6666 29.2777 59.6666 38.6666C59.6666 48.0554 67.2777 55.6666 76.6666 55.6666ZM76.6666 76.9999C97.8375 76.9999 115 59.8375 115 38.6666C115 17.4957 97.8375 0.333252 76.6666 0.333252C55.4957 0.333252 38.3333 17.4957 38.3333 38.6666C38.3333 59.8375 55.4957 76.9999 76.6666 76.9999Z" fill="#00BDF2"/>
<rect width="77" height="77" fill="white"/>
<path d="M76.6131 0.333252V38.668H38.2783L76.6131 0.333252Z" fill="#ED1C24"/>
<path d="M38.3347 0.333252V38.668H0L38.3347 0.333252Z" fill="#ED1C24"/>
<path d="M76.6131 38.668V76.9999H38.2783L76.6131 38.668Z" fill="#ED1C24"/>
<path d="M38.3347 38.668V76.9999H0L38.3347 38.668Z" fill="#ED1C24"/>
</svg>
