<svg width="88" height="135" viewBox="0 0 88 135" fill="none" xmlns="http://www.w3.org/2000/svg">
<path d="M79 101C79 119.777 63.7771 135 45 135C26.2229 135 11 119.777 11 101" fill="#00BDF2"/>
<path d="M52.2221 88C48.0706 88 43.9069 86.5279 40.5621 83.5352C33.3316 77.0642 32.6911 65.928 39.1329 58.6617L51.4819 44.7392C52.8476 43.2004 52.9654 41.4885 52.9141 40.6053C52.8627 39.722 52.5485 38.0345 51.0166 36.6656C48.6719 34.5683 45.0672 34.7777 42.9793 37.13L30.6334 51.0525C24.1916 58.3157 13.1056 58.9592 5.87211 52.4881C-1.3614 46.017 -1.99894 34.8809 4.44293 27.6146L16.7888 13.6921C31.7423 -3.16845 57.5642 -4.66481 74.3487 10.3564C82.4796 17.6318 87.3019 27.6541 87.9304 38.5747C88.5589 49.4954 84.9149 60.0093 77.6693 68.174L65.3204 82.0965C61.8577 86.0089 57.0505 88 52.2221 88Z" fill="#006FB9"/>
</svg>
