<svg width="150" height="574" viewBox="0 0 150 574" fill="none" xmlns="http://www.w3.org/2000/svg">
<path d="M78.5523 559.208H8V573.133H78.5523V559.208Z" fill="#FFE600"/>
<path d="M149.485 536H78.5527V559.562H149.485V536Z" fill="#00BDF2"/>
<path d="M87.1925 111.474C87.1925 132.199 70.3909 149 49.6665 149C28.9422 149 12.1406 132.199 12.1406 111.474" fill="#00BDF2"/>
<path d="M57.6378 97.1259C53.0557 97.1259 48.4602 95.5012 44.7686 92.1981C36.7882 85.056 36.0812 72.765 43.1912 64.7451L56.8207 49.3788C58.3281 47.6804 58.4581 45.791 58.4014 44.8162C58.3447 43.8414 57.9979 41.9788 56.3072 40.4679C53.7193 38.1531 49.7408 38.3843 47.4364 40.9805L33.8102 56.3468C26.7003 64.3632 14.4647 65.0734 6.48107 57.9313C-1.50258 50.7892 -2.20623 38.4982 4.90368 30.4783L18.5299 15.112C35.0341 -3.49703 63.5338 -5.14856 82.0589 11.4304C91.033 19.4603 96.3555 30.5219 97.0491 42.5751C97.7428 54.6282 93.7209 66.2325 85.7239 75.2439L72.0944 90.6102C68.2726 94.9283 62.9669 97.1259 57.6378 97.1259Z" fill="#006FB9"/>
</svg>
