<svg width="127" height="85" viewBox="0 0 127 85" fill="none" xmlns="http://www.w3.org/2000/svg">
<path d="M31.7344 52.2677L0.00216918 52.2677L0.00217056 20.5332L31.7344 52.2677Z" fill="#ED1C24"/>
<path d="M0.00217056 20.5791L31.7344 20.5791L31.7344 52.3136L0.00217056 20.5791Z" fill="white"/>
<path d="M126.934 52.2677L95.1991 52.2677L95.1991 20.5332L126.934 52.2677Z" fill="#ED1C24"/>
<path d="M95.1991 20.5332L126.934 20.5332L126.934 52.2677L95.1991 20.5332Z" fill="white"/>
<path d="M126.934 84.0011L95.1991 84.0011L95.1991 52.2666L126.934 84.0011Z" fill="#ED1C24"/>
<path d="M95.1991 52.2666L126.934 52.2666L126.934 84.0011L95.1991 52.2666Z" fill="white"/>
<path d="M119.469 28.6944L119.469 39.6773C119.469 45.4295 114.878 50.0922 109.214 50.0922C103.55 50.0922 98.9595 45.4295 98.9595 39.6773L98.9595 28.5437C98.9596 24.4317 95.7924 20.9514 91.7437 20.8297C87.538 20.7021 84.0798 24.139 84.0798 28.3815L84.0798 57.7628C84.0798 64.7379 81.452 71.4986 76.59 76.4278C71.788 81.2991 65.4138 83.9854 58.6288 83.9999C52.1633 84.0144 45.8947 81.5194 41.1725 77.0364C35.9539 72.0811 33.0664 65.3117 33.0664 58.096L33.0664 51.3266C33.0664 48.1274 30.5128 45.5338 27.3628 45.5338L13.0566 45.5338C7.39285 45.5338 2.80196 40.8712 2.80196 35.119C2.80196 29.3667 7.39285 24.7041 13.0566 24.7041L27.0204 24.7041C34.0594 24.7041 40.8844 27.4252 45.8719 32.4703C50.8422 37.501 53.5785 44.2008 53.5785 51.3238L53.5785 57.9685C53.5785 60.7186 55.6785 63.063 58.3862 63.1673C61.2309 63.2774 63.5792 60.9591 63.5792 58.0931L63.5792 28.6944C63.5792 21.1687 66.3839 13.8777 71.574 8.50798C76.8725 3.02235 83.9714 -0.000102285 91.5268 -0.000101625C99.0822 -0.000100964 106.181 3.02525 111.48 8.50799C116.664 13.8806 119.469 21.1716 119.469 28.6944Z" fill="#00BDF2"/>
<path d="M63.4687 83.9552L31.7342 83.9552L31.7342 52.2207L63.4687 83.9552Z" fill="#ED1C24"/>
<path d="M31.7342 52.2666L63.4688 52.2666L63.4687 84.0011L31.7342 52.2666Z" fill="white"/>
<path d="M95.1992 52.2677L63.467 52.2677L63.467 20.5332L95.1992 52.2677Z" fill="#ED1C24"/>
<path d="M63.467 20.5332L95.1992 20.5332L95.1992 52.2677L63.467 20.5332Z" fill="white"/>
</svg>
