<svg width="1025" height="91" viewBox="0 0 1025 91" fill="none" xmlns="http://www.w3.org/2000/svg">
<path d="M60.8873 66.9355L121.27 66.9355L121.27 49.0003L60.8873 49.0003L60.8873 66.9355Z" fill="#00BDF2"/>
<path d="M0.000602722 85.0293L60.3828 85.0293L60.3828 67.0941L0.000604476 67.0941L0.000602722 85.0293Z" fill="#ED1C24"/>
<path d="M1024.44 0V45.0803H974.02L1024.44 0Z" fill="#ED1C24"/>
<path d="M1024.44 45.0801V90.1604H974.02L1024.44 45.0801Z" fill="#ED1C24"/>
<path d="M988.764 26.4032C996.918 26.4032 1003.53 20.4926 1003.53 13.2016C1003.53 5.91056 996.918 0 988.764 0C980.61 0 974 5.91056 974 13.2016C974 20.4926 980.61 26.4032 988.764 26.4032Z" fill="#1A1A1A"/>
<path d="M988.764 71.4833C996.918 71.4833 1003.53 65.5727 1003.53 58.2817C1003.53 50.9906 996.918 45.0801 988.764 45.0801C980.61 45.0801 974 50.9906 974 58.2817C974 65.5727 980.61 71.4833 988.764 71.4833Z" fill="#1A1A1A"/>
</svg>
