<svg width="1058" height="408" viewBox="0 0 1058 408" fill="none" xmlns="http://www.w3.org/2000/svg">
<path d="M961.328 408L924.325 408C904.946 408 889.237 391.945 889.237 372.138C889.237 352.331 904.946 336.276 924.325 336.276L961.835 336.276C975.689 336.276 987.414 325.201 987.825 311.042C988.254 296.334 976.674 284.24 962.382 284.24L863.395 284.24C839.895 284.24 817.118 275.05 800.511 258.048C784.099 241.253 775.049 218.963 775 195.235C774.951 172.623 783.357 150.702 798.461 134.187C815.155 115.937 837.962 105.839 862.272 105.839L885.078 105.839C895.856 105.839 904.594 96.9081 904.594 85.8921L904.594 35.8618C904.594 16.0548 920.303 -6.35142e-06 939.683 -7.19851e-06C959.062 -8.0456e-06 974.77 16.0548 974.77 35.8618L974.77 84.6953C974.77 109.311 965.604 133.179 948.606 150.621C931.658 168.004 909.085 177.572 885.088 177.572L862.701 177.572C853.436 177.572 845.538 184.916 845.186 194.386C844.815 204.335 852.626 212.546 862.281 212.546L961.328 212.546C986.681 212.546 1011.24 222.355 1029.34 240.505C1047.82 259.035 1058 283.861 1058 310.283C1058 336.706 1047.81 361.531 1029.34 380.061C1011.24 398.191 986.671 408 961.328 408Z" fill="#FFE600"/>
<path d="M899.58 296.208H829.027V310.133H899.58V296.208Z" fill="#ED1C24"/>
<path d="M970.51 273H899.578V296.562H970.51V273Z" fill="#00BDF2"/>
<path d="M1.60872e-06 381.803L36.8032 381.803L36.8032 345L1.60872e-06 381.803Z" fill="#FFE600"/>
<path d="M36.8008 381.803L73.6012 381.803L73.6012 345L36.8008 381.803Z" fill="#FFE600"/>
<path d="M36.8032 345L0 345L1.60872e-06 381.803L36.8032 345Z" fill="#FFF7B1"/>
<path d="M73.6782 345L36.875 345L36.875 381.803L73.6782 345Z" fill="#FFF7B1"/>
</svg>
