<svg width="45" height="45" viewBox="0 0 45 45" fill="none" xmlns="http://www.w3.org/2000/svg">
<rect width="45" height="45" fill="#ED1C24"/>
<path d="M18.8073 21.0521C19.974 23.3125 21.6875 25.026 23.9479 26.1927L25.6615 24.4792C25.9045 24.2361 26.1719 24.1753 26.4635 24.2969C27.3385 24.5885 28.2622 24.7344 29.2344 24.7344C29.4531 24.7344 29.6354 24.8073 29.7812 24.9531C29.9271 25.099 30 25.2812 30 25.5V28.2344C30 28.4531 29.9271 28.6354 29.7812 28.7812C29.6354 28.9271 29.4531 29 29.2344 29C25.5885 29 22.4653 27.7118 19.8646 25.1354C17.2882 22.5347 16 19.4115 16 15.7656C16 15.5469 16.0729 15.3646 16.2188 15.2188C16.3646 15.0729 16.5469 15 16.7656 15H19.5C19.7188 15 19.901 15.0729 20.0469 15.2188C20.1927 15.3646 20.2656 15.5469 20.2656 15.7656C20.2656 16.7378 20.4115 17.6615 20.7031 18.5365C20.8003 18.8524 20.7396 19.1198 20.5208 19.3385L18.8073 21.0521Z" fill="white"/>
</svg>
