<svg width="1112" height="164" viewBox="0 0 1112 164" fill="none" xmlns="http://www.w3.org/2000/svg">
<path d="M356.785 98.7393L427.717 98.7393V75.1803H356.785V98.7393Z" fill="#006FB9"/>
<path d="M356.782 92.9814V163.914H285.855L356.782 92.9814Z" fill="#00BDF2"/>
<path d="M285.957 92.9814V163.914H215.025L285.957 92.9814Z" fill="#00BDF2"/>
<path d="M215.025 163.914V92.9814H285.957L215.025 163.914Z" fill="white"/>
<path opacity="0.5" d="M285.855 163.914V92.9814H356.782L285.855 163.914Z" fill="#00BDF2"/>
<path d="M498.932 14.1807H428V37.743H498.932V14.1807Z" fill="#FFE600"/>
<path d="M70.9321 0H0V23.5624H70.9321V0Z" fill="#00BDF2"/>
<path d="M569.866 33.4131H498.934V45.1935H569.866V33.4131Z" fill="#00BDF2"/>
<path d="M215.12 22.1807V93.1127H144.193L215.12 22.1807Z" fill="#ED1C24"/>
<path d="M144.295 22.1807V93.1127H73.3633L144.295 22.1807Z" fill="#ED1C24"/>
<path d="M94.1081 63.725C105.58 63.725 114.88 54.425 114.88 42.9528C114.88 31.4807 105.58 22.1807 94.1081 22.1807C82.636 22.1807 73.3359 31.4807 73.3359 42.9528C73.3359 54.425 82.636 63.725 94.1081 63.725Z" fill="#1A1A1A"/>
<path d="M235.772 134.527C247.244 134.527 256.544 125.227 256.544 113.755C256.544 102.282 247.244 92.9824 235.772 92.9824C224.3 92.9824 215 102.282 215 113.755C215 125.227 224.3 134.527 235.772 134.527Z" fill="#1A1A1A"/>
<path d="M1111.68 98.8032L1074.88 98.8032L1074.88 62L1111.68 98.8032Z" fill="#0070B9"/>
<path d="M1074.88 98.8032L1038.08 98.8032L1038.08 62L1074.88 98.8032Z" fill="#006FB9"/>
</svg>
