<svg width="275" height="395" viewBox="0 0 275 395" fill="none" xmlns="http://www.w3.org/2000/svg">
<path d="M181.06 395L145.104 395C126.272 395 111.008 379.457 111.008 360.281C111.008 341.105 126.272 325.562 145.104 325.562L181.554 325.562C195.016 325.562 206.409 314.839 206.808 301.131C207.225 286.892 195.973 275.183 182.085 275.183L85.8957 275.183C63.0604 275.183 40.9273 266.286 24.7898 249.826C8.8421 233.566 0.0476325 211.986 0.000196443 189.014C-0.0472396 167.123 8.12109 145.9 22.7974 129.912C39.0203 112.243 61.182 102.467 84.8046 102.467L106.966 102.467C117.44 102.467 125.931 93.8204 125.931 83.1554L125.931 34.7192C125.931 15.5432 141.196 -1.57086e-05 160.027 -1.65318e-05C178.859 -1.73549e-05 194.123 15.5432 194.123 34.7192L194.123 81.9967C194.123 105.828 185.215 128.936 168.699 145.822C152.229 162.65 130.295 171.915 106.976 171.915L85.2221 171.915C76.219 171.915 68.5439 179.025 68.2023 188.192C67.8418 197.824 75.4314 205.774 84.8141 205.774L181.06 205.774C205.697 205.774 229.566 215.27 247.147 232.842C265.105 250.782 275 274.816 275 300.397C275 325.977 265.095 350.012 247.147 367.951C229.557 385.504 205.688 395 181.06 395Z" fill="#FFE600"/>
</svg>
