<svg width="1112" height="437" viewBox="0 0 1112 437" fill="none" xmlns="http://www.w3.org/2000/svg">
<path d="M34.9727 36.8032L71.7758 36.8032L71.7758 -1.60872e-06L34.9727 36.8032Z" fill="#FFE600"/>
<path d="M71.7754 36.8032L108.576 36.8032L108.576 -1.6086e-06L71.7754 36.8032Z" fill="#FFE600"/>
<path d="M71.7758 -1.60872e-06L34.9727 0L34.9727 36.8032L71.7758 -1.60872e-06Z" fill="white"/>
<path d="M108.651 -1.60872e-06L71.8477 0L71.8477 36.8032L108.651 -1.60872e-06Z" fill="white"/>
<path d="M356.785 364.559H427.717V341H356.785V364.559Z" fill="#006FB9"/>
<path d="M356.782 358.801V429.733H285.855L356.782 358.801Z" fill="#00BDF2"/>
<path d="M285.957 358.801V429.733H215.025L285.957 358.801Z" fill="#00BDF2"/>
<path d="M215.025 429.733V358.801H285.957L215.025 429.733Z" fill="white"/>
<path opacity="0.5" d="M285.855 429.733V358.801H356.782L285.855 429.733Z" fill="#00BDF2"/>
<path d="M498.932 280H428V303.562H498.932V280Z" fill="#FFE600"/>
<path d="M70.9321 265.819H0V289.382H70.9321V265.819Z" fill="#00BDF2"/>
<path d="M569.866 299.232H498.934V311.013H569.866V299.232Z" fill="#00BDF2"/>
<path d="M215.12 288V358.932H144.193L215.12 288Z" fill="#ED1C24"/>
<path d="M144.295 288V358.932H73.3633L144.295 288Z" fill="#ED1C24"/>
<path d="M94.1081 329.544C105.58 329.544 114.88 320.244 114.88 308.772C114.88 297.3 105.58 288 94.1081 288C82.636 288 73.3359 297.3 73.3359 308.772C73.3359 320.244 82.636 329.544 94.1081 329.544Z" fill="#1A1A1A"/>
<path d="M235.772 400.346C247.244 400.346 256.544 391.046 256.544 379.574C256.544 368.102 247.244 358.802 235.772 358.802C224.3 358.802 215 368.102 215 379.574C215 391.046 224.3 400.346 235.772 400.346Z" fill="#1A1A1A"/>
<path d="M1111.65 436.803L1074.85 436.803L1074.85 400L1111.65 436.803Z" fill="#0070B9"/>
<path d="M1074.85 436.803L1038.05 436.803L1038.05 400L1074.85 436.803Z" fill="#006FB9"/>
</svg>
