<svg width="338" height="379" viewBox="0 0 338 379" fill="none" xmlns="http://www.w3.org/2000/svg">
<path d="M338 219.5C338 307.591 266.588 379 178.494 379C90.3992 379 19 307.579 19 219.5C19 131.421 90.4117 60 178.506 60C266.601 60 338 131.409 338 219.5ZM178.506 148.667C139.384 148.667 107.67 180.379 107.67 219.5C107.67 258.621 139.384 290.333 178.506 290.333C217.629 290.333 249.342 258.621 249.342 219.5C249.342 180.379 217.616 148.667 178.506 148.667Z" fill="#FFE600"/>
<path d="M39.5 0L42.7555 22.5745C43.7773 29.6579 49.3421 35.2227 56.4255 36.2445L79 39.5L56.4255 42.7555C49.3421 43.7773 43.7773 49.3421 42.7555 56.4255L39.5 79L36.2445 56.4255C35.2227 49.3421 29.6579 43.7773 22.5745 42.7555L0 39.5L22.5745 36.2445C29.6579 35.2227 35.2227 29.6579 36.2445 22.5745L39.5 0Z" fill="#ED1C24"/>
</svg>
