<svg width="183" height="89" viewBox="0 0 183 89" fill="none" xmlns="http://www.w3.org/2000/svg">
<path d="M121.889 17.9355L182.271 17.9355L182.271 0.00031662L121.889 0.0003119L121.889 17.9355Z" fill="#00BDF2"/>
<path d="M61.0006 36.0293L121.383 36.0293L121.383 18.0941L61.0006 18.0941L61.0006 36.0293Z" fill="#ED1C24"/>
<path d="M60.4056 35V88.9921H0.0234375L60.4056 35Z" fill="#ED1C24"/>
<path d="M0.0234375 88.9921V35H60.4056L0.0234375 88.9921Z" fill="white"/>
<path d="M17.6827 66.6227C27.4485 66.6227 35.3654 59.5438 35.3654 50.8114C35.3654 42.079 27.4485 35 17.6827 35C7.9168 35 0 42.079 0 50.8114C0 59.5438 7.9168 66.6227 17.6827 66.6227Z" fill="#1A1A1A"/>
</svg>
