<svg width="378" height="163" viewBox="0 0 378 163" fill="none" xmlns="http://www.w3.org/2000/svg">
<path d="M346.999 0H286.617V53.9921H346.999V0Z" fill="#0070B9"/>
<path d="M285.598 54V107.992H225.221L285.598 54Z" fill="#ED1C24"/>
<path d="M225.308 54V107.992H164.926L225.308 54Z" fill="#ED1C24"/>
<path d="M286.106 108.205V162.197H225.729L286.106 108.205Z" fill="#ED1C24"/>
<path d="M225.308 107.992V161.984H164.926L225.308 107.992Z" fill="#ED1C24"/>
<path d="M164.926 161.984V107.992H225.308L164.926 161.984Z" fill="white"/>
<path d="M225.221 161.984V107.992H285.598L225.221 161.984Z" fill="#EFBFCC"/>
<path d="M164.926 107.992V54H225.308L164.926 107.992Z" fill="white"/>
<path d="M225.221 107.992V54H285.598L225.221 107.992Z" fill="#EFBFCC"/>
<path d="M60.8893 108.061L121.271 108.061L121.271 90.1253L60.8893 90.1253L60.8893 108.061Z" fill="#00BDF2"/>
<path d="M317.001 17.9355L377.383 17.9355L377.383 0.00031662L317.001 0.0003119L317.001 17.9355Z" fill="#00BDF2"/>
<path d="M0.000602722 126.154L60.3828 126.154L60.3828 108.219L0.000604476 108.219L0.000602722 126.154Z" fill="#ED1C24"/>
<path d="M182.585 85.6227C192.351 85.6227 200.268 78.5438 200.268 69.8114C200.268 61.079 192.351 54 182.585 54C172.819 54 164.902 61.079 164.902 69.8114C164.902 78.5438 172.819 85.6227 182.585 85.6227Z" fill="#1A1A1A"/>
<path d="M182.585 139.615C192.351 139.615 200.268 132.536 200.268 123.804C200.268 115.071 192.351 107.992 182.585 107.992C172.819 107.992 164.902 115.071 164.902 123.804C164.902 132.536 172.819 139.615 182.585 139.615Z" fill="#1A1A1A"/>
</svg>
