<svg width="370" height="496" viewBox="0 0 370 496" fill="none" xmlns="http://www.w3.org/2000/svg">
<path d="M325 50.4805L375.48 50.4805V0.000213623L325 0.000213623V50.4805Z" fill="#006FB9"/>
<path d="M290.095 50.9043H239.615V101.385H290.095V50.9043Z" fill="#FFE600"/>
<path d="M238.766 0.224609V50.7049H188.289L238.766 0.224609Z" fill="#ED1C24"/>
<path d="M188.361 0.224609V50.7049H137.881L188.361 0.224609Z" fill="#ED1C24"/>
<path d="M239.187 50.9043V101.385H188.711L239.187 50.9043Z" fill="#ED1C24"/>
<path d="M188.361 50.7051V101.185H137.881L188.361 50.7051Z" fill="#ED1C24"/>
<path d="M137.881 101.185V50.7051H188.361L137.881 101.185Z" fill="white"/>
<path d="M188.289 101.185V50.7051H238.766L188.289 101.185Z" fill="#EFBFCC"/>
<path d="M137.881 50.7049V0.224609H188.361L137.881 50.7049Z" fill="white"/>
<path d="M188.289 50.7049V0.224609H238.766L188.289 50.7049Z" fill="#EFBFCC"/>
<path d="M50.9045 50.7686L101.385 50.7686L101.385 33.9999L50.9045 33.9999L50.9045 50.7686Z" fill="#FFE600"/>
<path d="M0.000213623 67.3125L50.4805 67.3125L50.4805 50.5439L0.000215089 50.5439L0.000213623 67.3125Z" fill="#ED1C24"/>
<path d="M152.644 29.7905C160.809 29.7905 167.427 23.1719 167.427 15.0075C167.427 6.84316 160.809 0.224609 152.644 0.224609C144.48 0.224609 137.861 6.84316 137.861 15.0075C137.861 23.1719 144.48 29.7905 152.644 29.7905Z" fill="#1A1A1A"/>
<path d="M152.644 80.2709C160.809 80.2709 167.427 73.6524 167.427 65.488C167.427 57.3236 160.809 50.7051 152.644 50.7051C144.48 50.7051 137.861 57.3236 137.861 65.488C137.861 73.6524 144.48 80.2709 152.644 80.2709Z" fill="#1A1A1A"/>
<path d="M95.9045 494.769L146.385 494.769L146.385 478L95.9045 478L95.9045 494.769Z" fill="#FFE600"/>
<path d="M45.0002 478.769L95.4805 478.769L95.4805 462L45.0002 462L45.0002 478.769Z" fill="#0070B9"/>
<path d="M290.476 445V495.48H240L290.476 445Z" fill="#ED1C24"/>
<path d="M254.783 474.566C262.947 474.566 269.566 467.947 269.566 459.783C269.566 451.619 262.947 445 254.783 445C246.619 445 240 451.619 240 459.783C240 467.947 246.619 474.566 254.783 474.566Z" fill="#1A1A1A"/>
</svg>
