<svg width="327" height="256" viewBox="0 0 327 256" fill="none" xmlns="http://www.w3.org/2000/svg">
<path d="M79 196.561V173.811C79 161.896 88.7589 152.238 100.798 152.238C112.838 152.238 122.597 161.896 122.597 173.811V196.874C122.597 205.391 129.329 212.601 137.936 212.853C146.876 213.117 154.227 205.998 154.227 197.21V136.348C154.227 121.9 159.813 107.896 170.148 97.6852C180.356 87.5946 193.905 82.0301 208.328 82.0001C222.072 81.9701 235.397 87.1384 245.435 96.4246C256.528 106.689 262.666 120.711 262.666 135.658V149.68C262.666 156.307 268.095 161.68 274.791 161.68H305.202C317.241 161.68 327 171.338 327 183.253C327 195.169 317.241 204.827 305.202 204.827H275.519C260.556 204.827 246.048 199.191 235.446 188.74C224.88 178.319 219.064 164.441 219.064 149.686V135.922C219.064 130.226 214.6 125.37 208.844 125.153C202.797 124.925 197.805 129.727 197.805 135.664V196.561C197.805 212.15 191.843 227.253 180.81 238.376C169.547 249.739 154.457 256 138.397 256C122.336 256 107.246 249.733 95.9826 238.376C84.9621 227.247 79 212.144 79 196.561Z" fill="#00BDF2"/>
<path d="M39.5 30L42.7555 52.5745C43.7773 59.6579 49.3421 65.2227 56.4255 66.2445L79 69.5L56.4255 72.7555C49.3421 73.7773 43.7773 79.3421 42.7555 86.4255L39.5 109L36.2445 86.4255C35.2227 79.3421 29.6579 73.7773 22.5745 72.7555L0 69.5L22.5745 66.2445C29.6579 65.2227 35.2227 59.6579 36.2445 52.5745L39.5 30Z" fill="#ED1C24"/>
</svg>
