<svg width="1183" height="1431" viewBox="0 0 1183 1431" fill="none" xmlns="http://www.w3.org/2000/svg">
<path d="M17.9746 976.803L54.7778 976.803L54.7778 940L17.9746 976.803Z" fill="#FFE600"/>
<path d="M54.7773 976.803L91.5778 976.803L91.5778 940L54.7773 976.803Z" fill="#FFE600"/>
<path d="M917.553 926.207H847.001V940.132H917.553V926.207Z" fill="#FFE600"/>
<path d="M988.484 903H917.552V926.562H988.484V903Z" fill="#00BDF2"/>
<path d="M1101.99 350.682L1118.19 363.667L1138.9 337.827L1147.66 344.847L1155.38 335.209L1164.14 342.228L1172.9 349.247L1165.18 358.885L1173.94 365.904L1153.23 391.743L1169.44 404.729L1195.41 372.319L1186.65 365.3L1194.37 355.665L1185.61 348.646L1193.33 339.009L1177.13 326.023L1160.92 313.038L1153.2 322.676L1144.44 315.656L1136.72 325.291L1127.96 318.272L1101.99 350.682Z" fill="#006FB9"/>
<path d="M1140.25 407.948L1156.45 420.934L1169.44 404.729L1153.23 391.744L1140.25 407.948Z" fill="#ED1C24"/>
<path d="M1089 366.886L1105.21 379.871L1118.19 363.666L1101.99 350.681L1089 366.886Z" fill="#ED1C24"/>
</svg>
