<svg width="473" height="388" viewBox="0 0 473 388" fill="none" xmlns="http://www.w3.org/2000/svg">
<path d="M319 228.5C319 316.591 247.588 388 159.494 388C71.3992 388 0 316.579 0 228.5C0 140.421 71.4117 69 159.506 69C247.601 69 319 140.409 319 228.5ZM159.506 157.667C120.384 157.667 88.6702 189.379 88.6702 228.5C88.6702 267.621 120.384 299.333 159.506 299.333C198.629 299.333 230.342 267.621 230.342 228.5C230.342 189.379 198.616 157.667 159.506 157.667Z" fill="#FFE600"/>
<path d="M441.999 0H381.617V53.9921H441.999V0Z" fill="#0070B9"/>
<path d="M155.889 108.061L216.271 108.061L216.271 90.1253L155.889 90.1253L155.889 108.061Z" fill="#00BDF2"/>
<path d="M412.001 17.9355L472.383 17.9355L472.383 0.00031662L412.001 0.0003119L412.001 17.9355Z" fill="#00BDF2"/>
<path d="M95.0006 126.154L155.383 126.154L155.383 108.219L95.0006 108.219L95.0006 126.154Z" fill="#ED1C24"/>
<path d="M381.698 54V107.992H321.32L381.698 54Z" fill="#00BDF2"/>
<path d="M321.406 54V107.992H261.023L321.406 54Z" fill="#00BDF2"/>
<path d="M382.202 108.205V162.197H321.824L382.202 108.205Z" fill="#00BDF2"/>
<path d="M321.406 107.992V161.984H261.023L321.406 107.992Z" fill="#00BDF2"/>
<path d="M261.023 161.984V107.992H321.406L261.023 161.984Z" fill="white"/>
<path d="M321.32 161.984V107.992H381.698L321.32 161.984Z" fill="#E6F8FE"/>
<path d="M261.023 107.992V54H321.406L261.023 107.992Z" fill="white"/>
<path d="M321.32 107.992V54H381.698L321.32 107.992Z" fill="#E6F8FE"/>
<path d="M278.683 85.6227C288.449 85.6227 296.365 78.5438 296.365 69.8114C296.365 61.079 288.449 54 278.683 54C268.917 54 261 61.079 261 69.8114C261 78.5438 268.917 85.6227 278.683 85.6227Z" fill="#1A1A1A"/>
<path d="M278.683 139.615C288.449 139.615 296.365 132.536 296.365 123.804C296.365 115.071 288.449 107.992 278.683 107.992C268.917 107.992 261 115.071 261 123.804C261 132.536 268.917 139.615 278.683 139.615Z" fill="#1A1A1A"/>
</svg>
