<svg width="514" height="751" viewBox="0 0 514 751" fill="none" xmlns="http://www.w3.org/2000/svg">
<path d="M364.573 718.68L315.172 718.68C289.3 718.68 268.328 697.208 268.328 670.718C268.328 644.228 289.3 622.756 315.172 622.756L365.25 622.756C383.746 622.756 399.399 607.943 399.948 589.006C400.521 569.336 385.061 553.162 365.98 553.162L233.826 553.162C202.453 553.162 172.044 540.871 149.873 518.132C127.963 495.671 115.88 465.859 115.815 434.125C115.75 403.885 126.972 374.566 147.136 352.479C169.424 328.072 199.872 314.567 232.327 314.567L262.775 314.567C277.165 314.567 288.831 302.622 288.831 287.889L288.831 220.978C288.831 194.488 309.803 173.016 335.675 173.016C361.548 173.016 382.52 194.488 382.52 220.978L382.52 286.289C382.52 319.21 370.281 351.132 347.589 374.459C324.962 397.706 294.826 410.504 262.788 410.504L232.901 410.504C220.531 410.504 209.987 420.325 209.517 432.99C209.022 446.295 219.45 457.278 232.34 457.278L364.573 457.278C398.421 457.278 431.215 470.396 455.369 494.67C480.041 519.452 493.636 552.655 493.636 587.992C493.636 623.33 480.028 656.532 455.369 681.314C431.202 705.562 398.408 718.68 364.573 718.68Z" fill="#FFE600"/>
<path d="M231.417 583.566L346.059 583.566L346.059 549.467L231.417 549.467L231.417 583.566Z" fill="#00BDF2"/>
<path d="M115.815 617.967L230.457 617.967L230.457 583.867L115.815 583.867L115.815 617.967Z" fill="#ED1C24"/>
<path d="M114.687 616.01V718.663H0.0449219L114.687 616.01Z" fill="#ED1C24"/>
<path d="M0.0449219 718.663V616.01H114.687L0.0449219 718.663Z" fill="white"/>
<path d="M33.5724 676.133C52.1139 676.133 67.1447 662.674 67.1447 646.071C67.1447 629.469 52.1139 616.01 33.5724 616.01C15.0309 616.01 0 629.469 0 646.071C0 662.674 15.0309 676.133 33.5724 676.133Z" fill="#1A1A1A"/>
</svg>
