<svg width="376" height="859" viewBox="0 0 376 859" fill="none" xmlns="http://www.w3.org/2000/svg">
<path d="M325 50.4805L375.48 50.4805V0.000213623L325 0.000213623V50.4805Z" fill="#006FB9"/>
<path d="M290.095 50.9043H239.615V101.385H290.095V50.9043Z" fill="#FFE600"/>
<path d="M238.766 0.224609V50.7049H188.289L238.766 0.224609Z" fill="#ED1C24"/>
<path d="M188.361 0.224609V50.7049H137.881L188.361 0.224609Z" fill="#ED1C24"/>
<path d="M239.187 50.9043V101.385H188.711L239.187 50.9043Z" fill="#ED1C24"/>
<path d="M188.361 50.7051V101.185H137.881L188.361 50.7051Z" fill="#ED1C24"/>
<path d="M137.881 101.185V50.7051H188.361L137.881 101.185Z" fill="white"/>
<path d="M188.289 101.185V50.7051H238.766L188.289 101.185Z" fill="#EFBFCC"/>
<path d="M137.881 50.7049V0.224609H188.361L137.881 50.7049Z" fill="white"/>
<path d="M188.289 50.7049V0.224609H238.766L188.289 50.7049Z" fill="#EFBFCC"/>
<path d="M50.9045 50.7686L101.385 50.7686L101.385 33.9999L50.9045 33.9999L50.9045 50.7686Z" fill="#FFE600"/>
<path d="M0.000213623 67.3125L50.4805 67.3125L50.4805 50.5439L0.000215089 50.5439L0.000213623 67.3125Z" fill="#ED1C24"/>
<path d="M50.9045 807.769L101.385 807.769L101.385 791L50.9045 791L50.9045 807.769Z" fill="#FFE600"/>
<path d="M0.000213623 791.769L50.4805 791.769L50.4805 775L0.000215089 775L0.000213623 791.769Z" fill="#0070B9"/>
<path d="M152.644 29.7905C160.809 29.7905 167.427 23.1719 167.427 15.0075C167.427 6.84316 160.809 0.224609 152.644 0.224609C144.48 0.224609 137.861 6.84316 137.861 15.0075C137.861 23.1719 144.48 29.7905 152.644 29.7905Z" fill="#1A1A1A"/>
<path d="M152.644 80.2709C160.809 80.2709 167.427 73.6524 167.427 65.488C167.427 57.3236 160.809 50.7051 152.644 50.7051C144.48 50.7051 137.861 57.3236 137.861 65.488C137.861 73.6524 144.48 80.2709 152.644 80.2709Z" fill="#1A1A1A"/>
<path d="M375.476 808V858.48H325L375.476 808Z" fill="#ED1C24"/>
<path d="M339.783 837.566C347.947 837.566 354.566 830.947 354.566 822.783C354.566 814.619 347.947 808 339.783 808C331.619 808 325 814.619 325 822.783C325 830.947 331.619 837.566 339.783 837.566Z" fill="#1A1A1A"/>
</svg>
