<svg width="390" height="742" viewBox="0 0 390 742" fill="none" xmlns="http://www.w3.org/2000/svg">
<path d="M400.789 212.344C522.743 212.344 621.603 311.208 621.603 433.167C621.603 555.126 522.726 653.973 400.789 653.973C278.852 653.973 179.975 555.109 179.975 433.15C179.975 311.19 278.834 212.344 400.789 212.344ZM302.726 433.15C302.726 487.312 346.629 531.216 400.789 531.216C454.949 531.216 498.851 487.312 498.851 433.15C498.851 378.988 454.949 335.083 400.789 335.083C346.629 335.083 302.726 379.005 302.726 433.15Z" fill="#FFE600"/>
<path d="M84.4512 42.0622L84.4512 125.656L159.199 125.656L159.199 42.0622L84.4512 42.0622Z" fill="#0070B9"/>
<path d="M159.209 127.067L233.957 127.067L233.957 210.654L159.209 127.067Z" fill="#ED1C24"/>
<path d="M159.209 210.535L233.957 210.535L233.957 294.129L159.209 210.535Z" fill="#ED1C24"/>
<path d="M234.252 126.364L308.999 126.364L308.999 209.952L234.252 126.364Z" fill="#ED1C24"/>
<path d="M233.959 210.535L308.707 210.535L308.707 294.129L233.959 210.535Z" fill="#ED1C24"/>
<path d="M308.707 294.129L233.959 294.129L233.959 210.535L308.707 294.129Z" fill="white"/>
<path d="M308.707 210.654L233.959 210.654L233.959 127.067L308.707 210.654Z" fill="#EFBFCC"/>
<path d="M233.957 294.129L159.209 294.129L159.209 210.535L233.957 294.129Z" fill="white"/>
<path d="M233.957 210.654L159.209 210.654L159.209 127.067L233.957 210.654Z" fill="#EFBFCC"/>
<path d="M234.053 438.159L234.053 354.565L209.223 354.565L209.223 438.159L234.053 438.159Z" fill="#00BDF2"/>
<path d="M109.281 83.5941L109.281 0L84.4514 -1.34225e-06L84.4514 83.5941L109.281 83.5941Z" fill="#00BDF2"/>
<path d="M259.102 522.454L259.102 438.86L234.272 438.86L234.272 522.454L259.102 522.454Z" fill="#ED1C24"/>
<path d="M202.988 269.68C202.988 256.16 193.188 245.2 181.098 245.2C169.009 245.2 159.209 256.16 159.209 269.68C159.209 283.2 169.009 294.16 181.098 294.16C193.188 294.16 202.988 283.2 202.988 269.68Z" fill="#1A1A1A"/>
<path d="M277.738 269.68C277.738 256.16 267.938 245.2 255.848 245.2C243.759 245.2 233.959 256.16 233.959 269.68C233.959 283.2 243.759 294.16 255.848 294.16C267.938 294.16 277.738 283.2 277.738 269.68Z" fill="#1A1A1A"/>
<path d="M-2.39033e-06 686.507L31.2525 682C41.0589 680.585 48.7629 672.882 50.1775 663.075L54.6844 631.823L59.1913 663.075C60.6059 672.882 68.3099 680.585 78.1163 682L109.369 686.507L78.1163 691.014C68.3099 692.429 60.6059 700.132 59.1913 709.939L54.6844 741.191L50.1775 709.939C48.7629 700.132 41.0589 692.429 31.2525 691.014L-2.39033e-06 686.507Z" fill="#ED1C24"/>
</svg>
