<svg width="157" height="105" viewBox="0 0 157 105" fill="none" xmlns="http://www.w3.org/2000/svg">
<path fill-rule="evenodd" clip-rule="evenodd" d="M104.667 75.542C117.485 75.542 127.876 65.1511 127.876 52.3333C127.876 39.5155 117.485 29.1246 104.667 29.1246C91.8495 29.1246 81.4586 39.5155 81.4586 52.3333C81.4586 65.1511 91.8495 75.542 104.667 75.542ZM104.667 104.667C133.57 104.667 157.001 81.2362 157.001 52.3333C157.001 23.4304 133.57 0 104.667 0C75.7644 0 52.334 23.4304 52.334 52.3333C52.334 81.2362 75.7644 104.667 104.667 104.667Z" fill="#00BDF2"/>
<path d="M104.593 0V52.3353H52.2578L104.593 0Z" fill="#ED1C24"/>
<path d="M52.3353 0V52.3353H0L52.3353 0Z" fill="#ED1C24"/>
<path d="M104.593 52.3359V104.667H52.2578L104.593 52.3359Z" fill="#ED1C24"/>
<path d="M52.3353 52.3359V104.667H0L52.3353 52.3359Z" fill="#ED1C24"/>
<path d="M0 104.666V52.335H52.3353L0 104.666Z" fill="white"/>
<path d="M52.334 104.666V52.335H104.669L52.334 104.666Z" fill="white"/>
<path d="M0 52.3353V0H52.3353L0 52.3353Z" fill="white"/>
<path d="M52.334 52.3353V0H104.669L52.334 52.3353Z" fill="white"/>
</svg>
