<svg width="1027" height="862" viewBox="0 0 1027 862" fill="none" xmlns="http://www.w3.org/2000/svg">
<path d="M44 69L86 69L86 111L44 69Z" fill="#0070B9"/>
<path d="M86 69L127.997 69L127.997 111L86 69Z" fill="#0070B9"/>
<path d="M86 111L44 111L44 69L86 111Z" fill="#E6F8FE"/>
<path d="M128.084 111L86.084 111L86.084 69L128.084 111Z" fill="#E6F8FE"/>
<path d="M910.5 14L914.25 40.0036C915.427 48.1629 921.837 54.573 929.996 55.75L956 59.5L929.996 63.25C921.837 64.427 915.427 70.8371 914.25 78.9964L910.5 105L906.75 78.9964C905.573 70.8371 899.163 64.427 891.004 63.25L865 59.5L891.004 55.75C899.163 54.573 905.573 48.1629 906.75 40.0036L910.5 14Z" fill="#ED1C24"/>
<path d="M853.5 0L855.684 15.1449C856.37 19.8971 860.103 23.6304 864.855 24.3159L880 26.5L864.855 28.6841C860.103 29.3696 856.37 33.1029 855.684 37.8551L853.5 53L851.316 37.8551C850.63 33.1029 846.897 29.3696 842.145 28.6841L827 26.5L842.145 24.3159C846.897 23.6304 850.63 19.8971 851.316 15.1449L853.5 0Z" fill="#00BDF2"/>
<path d="M1027 772.5C1027 798.734 1005.73 820 979.498 820C953.263 820 932 798.73 932 772.5C932 746.27 953.267 725 979.502 725C1005.74 725 1027 746.266 1027 772.5ZM979.502 751.405C967.851 751.405 958.406 760.85 958.406 772.5C958.406 784.15 967.851 793.595 979.502 793.595C991.153 793.595 1000.6 784.15 1000.6 772.5C1000.6 760.85 991.149 751.405 979.502 751.405Z" fill="#FFE600"/>
<path d="M0 831.256V819.489C0 813.325 5.03686 808.33 11.2508 808.33C17.4646 808.33 22.5015 813.325 22.5015 819.489V831.417C22.5015 835.823 25.9763 839.552 30.4184 839.682C35.0326 839.819 38.8267 836.137 38.8267 831.591V800.111C38.8267 792.638 41.7098 785.394 47.044 780.113C52.3125 774.894 59.3059 772.016 66.7501 772C73.8436 771.985 80.7212 774.658 85.902 779.461C91.6276 784.77 94.7956 792.023 94.7956 799.754V807.007C94.7956 810.435 97.5973 813.214 101.053 813.214H116.749C122.963 813.214 128 818.209 128 824.372C128 830.536 122.963 835.531 116.749 835.531H101.429C93.7062 835.531 86.2182 832.616 80.7462 827.21C75.293 821.82 72.2909 814.642 72.2909 807.01V799.891C72.2909 796.944 69.9869 794.433 67.0162 794.321C63.8951 794.203 61.3188 796.687 61.3188 799.757V831.256C61.3188 839.319 58.2416 847.131 52.5473 852.884C46.7341 858.762 38.9456 862 30.6563 862C22.3669 862 14.5784 858.759 8.76519 852.884C3.07721 847.128 0 839.316 0 831.256Z" fill="#ED1C24"/>
<rect x="898" y="785" width="63" height="4" fill="#00AC4F"/>
<rect x="898" y="785" width="63" height="4" fill="#00AC4F"/>
<rect x="898" y="785" width="63" height="4" fill="#00AC4F"/>
<rect x="898" y="793" width="63" height="4" fill="#00AC4F"/>
<rect x="898" y="793" width="63" height="4" fill="#00AC4F"/>
<rect x="898" y="793" width="63" height="4" fill="#00AC4F"/>
<rect x="898" y="801" width="63" height="4" fill="#00AC4F"/>
<rect x="898" y="801" width="63" height="4" fill="#00AC4F"/>
<rect x="898" y="801" width="63" height="4" fill="#00AC4F"/>
</svg>
