<svg width="385" height="436" viewBox="0 0 385 436" fill="none" xmlns="http://www.w3.org/2000/svg">
<path d="M367 378.719L367 390.094C367 396.052 362.199 400.881 356.277 400.881C350.354 400.881 345.553 396.052 345.553 390.094L345.553 378.563C345.553 374.304 342.241 370.7 338.008 370.574C333.61 370.442 329.993 374.001 329.993 378.395L329.993 408.826C329.993 416.05 327.245 423.052 322.161 428.157C317.14 433.203 310.474 435.985 303.379 436C296.618 436.015 290.063 433.431 285.125 428.788C279.667 423.655 276.648 416.644 276.648 409.171L276.648 402.16C276.648 398.846 273.978 396.16 270.684 396.16L255.723 396.16C249.801 396.16 245 391.331 245 385.373C245 379.416 249.801 374.586 255.723 374.586L270.326 374.586C277.686 374.586 284.823 377.405 290.039 382.63C295.236 387.84 298.098 394.779 298.098 402.157L298.098 409.039C298.098 411.887 300.294 414.315 303.125 414.423C306.1 414.537 308.556 412.136 308.556 409.168L308.556 378.719C308.556 370.925 311.488 363.373 316.916 357.812C322.457 352.13 329.88 349 337.781 349C345.682 349 353.105 352.133 358.646 357.812C364.067 363.376 367 370.928 367 378.719Z" fill="#00BDF2"/>
<path d="M77.9157 339.669C80.5462 342.3 82.2602 345.862 82.5007 349.86C83.0195 358.504 76.434 365.901 67.7906 366.382L51.2255 367.298C49.394 367.398 48.2447 368.398 47.7227 368.985C47.2008 369.573 46.3404 370.831 46.4517 372.661C46.6206 375.463 49.036 377.616 51.8357 377.462L68.3989 376.544C77.0405 376.066 84.4687 382.686 84.9894 391.332C85.5101 399.978 78.9227 407.373 70.2792 407.853L53.7161 408.771C33.6562 409.882 16.3556 394.46 15.151 374.394C14.5667 364.675 17.8031 355.328 24.261 348.073C30.7188 340.819 39.6284 336.527 49.3451 335.992L65.9102 335.076C70.5604 334.814 74.8564 336.61 77.9157 339.669Z" fill="#00AB4E"/>
<path d="M15.1992 150.326L65.6795 150.326L65.6795 99.8496L15.1992 150.326Z" fill="#ED1C24"/>
<path d="M15 99.4998L65.4803 99.4998L65.4803 49.0195L15 99.4998Z" fill="#ED1C24"/>
<path d="M65.4803 49.0195L15 49.0195L15 99.4998L65.4803 49.0195Z" fill="white"/>
<path d="M65.4803 99.4277L15 99.4277L15 149.904L65.4803 99.4277Z" fill="#EFBFCC"/>
<path d="M44.5659 63.7829C44.5659 71.9473 37.9473 78.5659 29.7829 78.5659C21.6185 78.5659 15 71.9473 15 63.7829C15 55.6185 21.6185 49 29.7829 49C37.9473 49 44.5659 55.6185 44.5659 63.7829Z" fill="#1A1A1A"/>
<path d="M339.5 0L343.25 26.0036C344.427 34.1629 350.837 40.573 358.996 41.75L385 45.5L358.996 49.25C350.837 50.427 344.427 56.8371 343.25 64.9964L339.5 91L335.75 64.9964C334.573 56.8371 328.163 50.427 320.004 49.25L294 45.5L320.004 41.75C328.163 40.573 334.573 34.1629 335.75 26.0036L339.5 0Z" fill="#FFE600"/>
<path d="M296.5 53L298.684 68.1449C299.37 72.8971 303.103 76.6304 307.855 77.3159L323 79.5L307.855 81.6841C303.103 82.3696 299.37 86.1029 298.684 90.8551L296.5 106L294.316 90.8551C293.63 86.1029 289.897 82.3696 285.145 81.6841L270 79.5L285.145 77.3159C289.897 76.6304 293.63 72.8971 294.316 68.1449L296.5 53Z" fill="#FEE74C"/>
</svg>
