<svg width="156" height="110" viewBox="0 0 156 110" fill="none" xmlns="http://www.w3.org/2000/svg">
<path d="M0 72.4239V58.0416C0 50.5089 6.13867 44.4031 13.7119 44.4031C21.285 44.4031 27.4237 50.5089 27.4237 58.0416V72.6212C27.4237 78.006 31.6586 82.5636 37.0724 82.723C42.696 82.8899 47.32 78.3893 47.32 72.8337V34.3582C47.32 25.2241 50.8338 16.3709 57.3349 9.9159C63.7559 3.53684 72.2791 0.0190562 81.3517 8.21787e-05C89.9969 -0.0188918 98.3789 3.24843 104.693 9.11899C111.671 15.6081 115.532 24.4728 115.532 33.9218V42.7865C115.532 46.9759 118.947 50.3723 123.159 50.3723H142.288C149.861 50.3723 156 56.4781 156 64.0108C156 71.5435 149.861 77.6493 142.288 77.6493H123.617C114.204 77.6493 105.078 74.086 98.4094 67.4792C91.7634 60.8915 88.1046 52.1179 88.1046 42.7903V34.0888C88.1046 30.4875 85.2966 27.4175 81.6759 27.2809C77.8722 27.1367 74.7323 30.1726 74.7323 33.9256V72.4239C74.7323 82.279 70.9819 91.8267 64.0421 98.8585C56.9572 106.042 47.465 110 37.3623 110C27.2597 110 17.7674 106.038 10.6826 98.8585C3.75035 91.8229 0 82.2752 0 72.4239Z" fill="#00BDF2"/>
</svg>
