<svg width="307" height="1763" viewBox="0 0 307 1763" fill="none" xmlns="http://www.w3.org/2000/svg">
<path d="M319 1728.5C319 1747.55 303.554 1763 284.499 1763C265.444 1763 250 1747.55 250 1728.5C250 1709.45 265.446 1694 284.501 1694C303.556 1694 319 1709.45 319 1728.5ZM284.501 1713.18C276.039 1713.18 269.179 1720.04 269.179 1728.5C269.179 1736.96 276.039 1743.82 284.501 1743.82C292.964 1743.82 299.823 1736.96 299.823 1728.5C299.823 1720.04 292.961 1713.18 284.501 1713.18Z" fill="#FFE600"/>
<rect x="225" y="1737.61" width="45.907" height="2.91473" fill="#00AC4F"/>
<rect x="225" y="1737.61" width="45.907" height="2.91473" fill="#00AC4F"/>
<rect x="225" y="1737.61" width="45.907" height="2.91473" fill="#00AC4F"/>
<rect x="225" y="1743.44" width="45.907" height="2.91473" fill="#00AC4F"/>
<rect x="225" y="1743.44" width="45.907" height="2.91473" fill="#00AC4F"/>
<rect x="225" y="1743.44" width="45.907" height="2.91473" fill="#00AC4F"/>
<rect x="225" y="1749.27" width="45.907" height="2.91473" fill="#00AC4F"/>
<rect x="225" y="1749.27" width="45.907" height="2.91473" fill="#00AC4F"/>
<rect x="225" y="1749.27" width="45.907" height="2.91473" fill="#00AC4F"/>
<path d="M1.04588e-06 79.1783L65.4348 79.1783L65.4348 146L1.04588e-06 79.1783Z" fill="#0070B9"/>
<path d="M65.4346 79.1783L130.865 79.1783L130.865 146L65.4346 79.1783Z" fill="#0070B9"/>
<path d="M65.4348 146L0 146L1.04588e-06 79.1783L65.4348 146Z" fill="#E6F8FE"/>
<path d="M131 146L65.5654 146L65.5654 79.1783L131 146Z" fill="#E6F8FE"/>
<path d="M190.5 16L194.662 45.4326C195.968 54.6679 203.083 61.9233 212.139 63.2555L241 67.5L212.139 71.7445C203.083 73.0767 195.968 80.332 194.662 89.5674L190.5 119L186.338 89.5674C185.032 80.332 177.917 73.0767 168.861 71.7445L140 67.5L168.861 63.2555C177.917 61.9233 185.032 54.6679 186.338 45.4326L190.5 16Z" fill="#ED1C24"/>
<path d="M127.5 0L129.931 17.1452C130.694 22.525 134.85 26.7514 140.141 27.5275L157 30L140.141 32.4725C134.85 33.2486 130.694 37.475 129.931 42.8548L127.5 60L125.069 42.8548C124.306 37.475 120.15 33.2486 114.859 32.4725L98 30L114.859 27.5275C120.15 26.7514 124.306 22.525 125.069 17.1452L127.5 0Z" fill="#00BDF2"/>
</svg>
